<svg xmlns="http://www.w3.org/2000/svg" viewBox="0 0 82.03 94.72"><defs><style>.cls-1{fill:#763b3d;}</style></defs><g id="Camada_2" data-name="Camada 2"><g id="Camada_1-2" data-name="Camada 1"><g id="Grupo_1370" data-name="Grupo 1370"><path id="Caminho_1515" data-name="Caminho 1515" class="cls-1" d="M41,0,0,23.68V71L41,94.72,82,71V23.68ZM79.7,69.7,41,92,2.33,69.69V25L41,2.69,79.7,25Z"/><path class="cls-1" d="M36.66,47.26v1.63a1.05,1.05,0,0,1,.49.36,4.39,4.39,0,0,1,1.57-1l.43-.19a8.29,8.29,0,0,1-1.44-.19A3,3,0,0,1,36.66,47.26Z"/><path class="cls-1" d="M42.88,48.05l.43.19a4.21,4.21,0,0,1,1.58,1,1,1,0,0,1,.5-.38V47.25a3.33,3.33,0,0,1-1.07.61A8.29,8.29,0,0,1,42.88,48.05Z"/><path class="cls-1" d="M55.49,33.35h-6c-2.35,0-3.68,1.77-4.47,2.82l0,.08a6,6,0,0,0-8,0l0-.07c-.8-1.06-2.12-2.83-4.47-2.83H25.11v5.4h7c.16.18.38.48.52.66l.47.6A6,6,0,0,0,33,44.18a7.19,7.19,0,0,0,.39,1.08v2.89a2.46,2.46,0,0,0-.69,1.7V63.27a2.45,2.45,0,0,0,2.45,2.45h1.22a1.56,1.56,0,0,0,.31,0v6.73a4.38,4.38,0,1,0,8.75,0V65.7l.32,0h1.23a2.45,2.45,0,0,0,2.45-2.45V49.85a2.46,2.46,0,0,0-.69-1.7V45.22a7.21,7.21,0,0,0,.37-1A6,6,0,0,0,48.92,40c.17-.21.33-.41.47-.6s.36-.48.52-.66h7v-5.4Zm0,4h-6c-.37,0-.86.66-1.3,1.24a8.3,8.3,0,0,1-1.15,1.32,2.65,2.65,0,0,1,.5.69,4.47,4.47,0,0,1,.1,3.25,6,6,0,0,1-.43,1.09v4a1,1,0,0,1,.69,1V63.27a1,1,0,0,1-1,1H45.71a1,1,0,0,1-1-.86H44v9a2.95,2.95,0,1,1-5.89,0v-9h-.74a1,1,0,0,1-1,.86H35.11a1,1,0,0,1-1-1V49.85a1,1,0,0,1,.69-1v-4a6.54,6.54,0,0,1-.44-1.13,4.47,4.47,0,0,1,.1-3.25,2.65,2.65,0,0,1,.5-.69,8.3,8.3,0,0,1-1.15-1.32c-.44-.58-.93-1.24-1.3-1.24h-6V34.79h6c1.64,0,2.61,1.29,3.32,2.24.24.32.8,1.07,1,1.07h.45a4.62,4.62,0,0,1,7.53,0h.45c.19,0,.75-.75,1-1.07.71-1,1.68-2.24,3.32-2.24h6Z"/><path class="cls-1" d="M44.76,41.34A3.74,3.74,0,1,0,41,45.07,3.74,3.74,0,0,0,44.76,41.34ZM41,43.64a2.31,2.31,0,1,1,2.3-2.3A2.3,2.3,0,0,1,41,43.64Z"/><path class="cls-1" d="M38.32,60V54.19a2.7,2.7,0,0,1,5.39,0V60H45V54.19a4,4,0,1,0-8,0V60Z"/><polygon class="cls-1" points="41.01 57.41 38.84 56.22 39.53 54.95 41.01 55.77 42.5 54.95 43.19 56.22 41.01 57.41"/><polygon class="cls-1" points="41.01 62.36 38.84 61.16 39.53 59.9 41.01 60.72 42.5 59.9 43.19 61.16 41.01 62.36"/><polygon class="cls-1" points="41.01 67.31 38.84 66.11 39.53 64.85 41.01 65.66 42.5 64.85 43.19 66.11 41.01 67.31"/><polygon class="cls-1" points="41.01 72.25 38.84 71.06 39.53 69.8 41.01 70.61 42.5 69.8 43.19 71.06 41.01 72.25"/><path class="cls-1" d="M69.46,31.76l-1.54-1.39.13,2.43A41.34,41.34,0,0,0,14,32.8l.13-2.43-1.54,1.39-.18,3.45,3.45.18L17.38,34l-2.44-.13a39.92,39.92,0,0,1,52.15,0L64.65,34l1.54,1.39,3.45-.18Z"/></g></g></g></svg>