<?xml version="1.0" encoding="utf-8"?>
<!-- Generator: Adobe Illustrator 27.6.1, SVG Export Plug-In . SVG Version: 6.00 Build 0)  -->
<svg version="1.1" id="Layer_1" xmlns="http://www.w3.org/2000/svg" xmlns:xlink="http://www.w3.org/1999/xlink" x="0px" y="0px"
	 viewBox="0 0 82 94.7" style="enable-background:new 0 0 82 94.7;" xml:space="preserve">
<style type="text/css">
	.st0{fill:#14C3DF;}
</style>
<g id="Camada_2">
	<g id="Camada_1-2">
		<g id="Grupo_1370">
			<path id="Caminho_1515" class="st0" d="M41,0L0,23.7V71l41,23.7L82,71V23.7L41,0z M79.7,69.7L41,92L2.3,69.7V25L41,2.7L79.7,25
				V69.7z"/>
		</g>
		<g>
			<path class="st0" d="M43.6,40.8c-0.1-1.4-1.3-2.5-2.8-2.4c-1.3,0.1-2.4,1.1-2.4,2.4c0,0.9,0.5,1.7,1.3,2.2v21.4h2.7V43
				C43.1,42.5,43.6,41.7,43.6,40.8z"/>
			<path class="st0" d="M46.2,47.1c-0.3,0-0.6-0.1-0.8-0.3c-0.5-0.5-0.5-1.2,0-1.6c2.4-2.4,2.4-6.4,0-8.8c-0.5-0.4-0.5-1.2,0-1.6
				c0,0,0,0,0,0c0.5-0.5,1.2-0.5,1.6,0c3.3,3.3,3.3,8.7,0,12.1C46.8,47,46.5,47.1,46.2,47.1z"/>
			<path class="st0" d="M35.7,47.1c-0.3,0-0.6-0.1-0.8-0.3c-3.3-3.3-3.3-8.7,0-12.1c0.5-0.5,1.2-0.5,1.6,0c0.5,0.4,0.5,1.2,0,1.6
				c0,0,0,0,0,0c-2.4,2.4-2.4,6.4,0,8.8c0.5,0.5,0.5,1.2,0,1.6C36.3,47,36.1,47.1,35.7,47.1z"/>
			<path class="st0" d="M31.7,51.2c-0.3,0-0.6-0.1-0.8-0.3c-5.6-5.6-5.6-14.6,0-20.2c0.5-0.4,1.2-0.4,1.6,0.1c0.4,0.4,0.4,1.1,0,1.5
				c-4.7,4.7-4.7,12.2,0,16.9c0.5,0.5,0.5,1.2,0,1.6C32.3,51,32.1,51.2,31.7,51.2z"/>
			<path class="st0" d="M50.3,51.2c-0.3,0-0.6-0.1-0.8-0.3c-0.5-0.5-0.5-1.2,0-1.6c4.7-4.7,4.7-12.2,0-16.9
				c-0.4-0.5-0.4-1.2,0.1-1.6c0.4-0.4,1.1-0.4,1.5,0c5.6,5.6,5.6,14.6,0,20.2C50.9,51,50.6,51.2,50.3,51.2z"/>
		</g>
	</g>
</g>
</svg>
