<svg xmlns="http://www.w3.org/2000/svg" viewBox="0 0 82.03 94.72"><defs><style>.cls-1{fill:#14c3df;}</style></defs><g id="Camada_2" data-name="Camada 2"><g id="Camada_1-2" data-name="Camada 1"><g id="Grupo_1370" data-name="Grupo 1370"><path id="Caminho_1515" data-name="Caminho 1515" class="cls-1" d="M41,0,0,23.68V71L41,94.72,82,71V23.68ZM79.7,69.7,41,92,2.33,69.69V25L41,2.69,79.7,25Z"/></g><path class="cls-1" d="M35.61,31.91A2.11,2.11,0,1,0,37.73,34,2.11,2.11,0,0,0,35.61,31.91Zm0,2a.13.13,0,0,1,.14.12c0,.14-.27.14-.27,0A.12.12,0,0,1,35.61,33.89Z"/><path class="cls-1" d="M46.42,31.91A2.11,2.11,0,1,0,48.53,34,2.08,2.08,0,0,0,46.42,31.91Zm0,2a.12.12,0,0,1,.13.12c0,.15-.27.15-.27,0A.13.13,0,0,1,46.42,33.89Z"/><path class="cls-1" d="M56.82,39.34h-.11a3.48,3.48,0,0,0-3.1,1.93V39.81l0-.67c0-.23,0-.46,0-.69a10.77,10.77,0,0,0-5.49-9.07l1.37-2.12a1.37,1.37,0,0,0,.2-1.06,1.33,1.33,0,0,0-.59-.87,1.35,1.35,0,0,0-1.07-.22,1.38,1.38,0,0,0-.88.62l-1.6,2.45a14.41,14.41,0,0,0-9.22,0l-1.58-2.42a1.4,1.4,0,0,0-2.57.45,1.51,1.51,0,0,0,0,.6l0,0h.05a1.44,1.44,0,0,0,.18.4l1.38,2.13a10.77,10.77,0,0,0-5.49,9.07c0,.24,0,.48,0,.76l0,.54v1.52a3.48,3.48,0,0,0-3.1-1.93h-.11a3.5,3.5,0,0,0-3.49,3.5v10.9a3.5,3.5,0,0,0,3.49,3.5h.11a3.48,3.48,0,0,0,3.1-1.93V58a3.3,3.3,0,0,0,3.3,3.29h1.47v4.9a3.5,3.5,0,0,0,3.49,3.5h.11a3.5,3.5,0,0,0,3.49-3.5v-4.9h1.47v4.9a3.5,3.5,0,0,0,3.49,3.5h.11a3.5,3.5,0,0,0,3.49-3.5v-4.9h1.48A3.3,3.3,0,0,0,53.61,58V55.31a3.48,3.48,0,0,0,3.1,1.93h.11a3.5,3.5,0,0,0,3.49-3.5V42.84A3.5,3.5,0,0,0,56.82,39.34Zm-33.13,3.5a1.52,1.52,0,0,1,1.52-1.52h.11a1.52,1.52,0,0,1,1.51,1.52v10.9a1.52,1.52,0,0,1-1.51,1.52h-.11a1.52,1.52,0,0,1-1.52-1.52ZM46.86,59.26v6.88a1.52,1.52,0,0,1-1.51,1.52h-.11a1.52,1.52,0,0,1-1.51-1.52V59.26H38.31v6.88a1.53,1.53,0,0,1-1.52,1.52h-.11a1.52,1.52,0,0,1-1.51-1.52V59.26H31.72A1.32,1.32,0,0,1,30.4,58V41.73H51.63V58a1.31,1.31,0,0,1-1.31,1.31ZM30.33,38.15a9,9,0,0,1,5.33-7.52l.72-.33a12.48,12.48,0,0,1,9.25,0l.73.33a9,9,0,0,1,5.34,7.53ZM55.2,42.84a1.52,1.52,0,0,1,1.51-1.52h.11a1.52,1.52,0,0,1,1.52,1.52v10.9a1.52,1.52,0,0,1-1.52,1.52h-.11a1.52,1.52,0,0,1-1.51-1.52Z"/></g></g></svg>