<?xml version="1.0" encoding="utf-8"?>
<!-- Generator: Adobe Illustrator 27.3.1, SVG Export Plug-In . SVG Version: 6.00 Build 0)  -->
<svg version="1.1" id="Layer_1" xmlns="http://www.w3.org/2000/svg" xmlns:xlink="http://www.w3.org/1999/xlink" x="0px" y="0px"
	 viewBox="0 0 82 94.7" style="enable-background:new 0 0 82 94.7;" xml:space="preserve">
<style type="text/css">
	.st0{fill:#C42D32;}
</style>
<g id="Camada_2">
	<g id="Camada_1-2">
		<g id="Grupo_1370">
			<path id="Caminho_1515" class="st0" d="M41,0L0,23.7V71l41,23.7L82,71V23.7L41,0z M79.7,69.7L41,92L2.3,69.7V25L41,2.7L79.7,25
				V69.7z"/>
			<path class="st0" d="M24.3,37.4h0.9c0.2,0,0.4-0.1,0.5-0.2c0.1-0.1,0.2-0.3,0.2-0.5v-0.8h-0.6v-1.8h-1c-0.4,0-0.7,0.3-0.7,0.8
				v1.9C23.6,37.1,23.9,37.4,24.3,37.4z"/>
			<path class="st0" d="M31.4,58.1c0.4-0.1,0.8-0.2,1.2-0.3l0.2-0.1l0.1-0.1c0.2-0.2,0.3-0.4,0.4-0.7l0.4-1.2L32.1,56
				c-0.3,0.1-0.8,0.2-1.5,0.4L30,56.5c-0.5,0.1-1,0.2-1.6,0.2C25.8,57,25,57,24.9,57s-1.1,0-3.4-0.2c-0.5,0-1.1-0.1-1.6-0.2
				l-0.5-0.1c-0.6-0.1-1.1-0.2-1.6-0.4l-1.6-0.3l0.4,1c0.1,0.2,0.1,0.3,0.2,0.5l0.2,0.2H17c0.3,0.1,1.9,0.5,2.8,0.7l0.6,0.1
				c0.5,0.1,1.1,0.2,1.6,0.2c2.4,0.2,3.3,0.3,3.6,0.3l0,0c0.1,0,0.9,0,3.6-0.3c0.6-0.1,1.1-0.2,1.7-0.2L31.4,58.1z"/>
			<path class="st0" d="M36.2,33.7c-0.3-0.2-0.5-0.4-0.8-0.5L34.9,33c-0.6-0.3-1.2-0.6-1.9-0.8L32.4,32c-2.3-0.7-4.7-1-7.1-1h-1.2
				c-2.3,0-4.6,0.3-6.9,1l-0.5,0.2c-0.7,0.2-1.3,0.5-1.9,0.8l-0.5,0.3c-0.3,0.2-0.6,0.3-0.8,0.5c-1.6,1.2-1.9,4.1-2,5
				c-0.3,3.7-0.2,7.5,0.3,11.2c0.4,2.9,1,5.8,1.9,8.5c0.7,2.1,2.3,3.7,4.4,4.4c1.8,0.5,3.7,0.8,5.7,0.9h2c1.9-0.1,3.8-0.4,5.7-0.9
				c2.1-0.6,3.8-2.3,4.5-4.5c0.9-2.7,1.5-5.6,1.9-8.4c0.5-3.7,0.6-7.5,0.3-11.3C38.2,38.7,38,35.1,36.2,33.7z M25,61.8h-0.4
				c-1.8-0.1-3.6-0.3-5.4-0.8c-1.8-0.5-3.2-1.9-3.7-3.6c-0.8-2.5-1.4-5.1-1.8-7.8c-0.5-3.4-0.6-6.8-0.3-10.2v-0.4
				c0,0,0.2-2.9,1.5-3.9c0.2-0.1,0.4-0.3,0.6-0.4l0.5-0.2c0.6-0.3,1.2-0.5,1.8-0.7l0.5-0.2c2.1-0.6,4.3-1,6.5-1H25
				c2.2,0,4.4,0.4,6.5,1l0.5,0.2c0.6,0.2,1.2,0.4,1.8,0.7l0.5,0.2c0.2,0.1,0.4,0.2,0.6,0.4c1,0.8,1.4,2.8,1.5,3.7l0,0v0.2
				c0.3,3.5,0.2,7-0.3,10.5c-0.3,2.7-0.9,5.3-1.8,7.9c-0.5,1.7-1.9,3-3.7,3.5c-1.6,0.4-3.2,0.7-4.9,0.8L25,61.8z"/>
			<path class="st0" d="M29.1,47.5L29.1,47.5h3.1c0.3,0,0.7-0.1,0.9-0.4c0.2-0.2,0.4-0.6,0.4-0.9v-3c0-0.4-0.2-0.8-0.5-1l0.2-0.3
				c0.3-0.6,0.3-1.3,0.1-1.9c-0.4-1.3-1.8-1.9-3.1-1.5c-0.6,0.2-1.1,0.6-1.4,1.2l-0.3,0.6c-0.1,0.2-0.1,0.4,0,0.5
				c0.1,0.2,0.3,0.4,0.5,0.5h0.1c0.3,0,0.5-0.2,0.6-0.4l0.3-0.6c0.2-0.5,0.8-0.7,1.3-0.5c0.2,0.1,0.4,0.3,0.5,0.5
				c0.1,0.2,0.1,0.5,0,0.7l-0.5,0.7h-2.3c-0.7,0-1.3,0.6-1.3,1.3c0,0,0,0,0,0v3C27.8,46.9,28.3,47.4,29.1,47.5
				C29,47.5,29.1,47.5,29.1,47.5z M29.2,43.3H32l0,2.7h-2.8L29.2,43.3z"/>
			<path class="st0" d="M17.7,47.5h3.1c0.3,0,0.7-0.1,0.9-0.4c0.2-0.2,0.4-0.6,0.4-0.9v-3c0-0.4-0.2-0.7-0.4-1v-1.1
				c0-1.3-1.1-2.4-2.4-2.4c-0.6,0-1.2,0.3-1.7,0.7c-0.5,0.4-0.7,1-0.7,1.7l-0.1,1.3c-0.2,0.2-0.3,0.5-0.3,0.8v3
				C16.4,46.9,17,47.4,17.7,47.5z M20.3,41.8h-1.9v-0.8c0-0.2,0-0.4,0.4-0.8l0.4-0.2h0.2c0.6,0,1,0.4,1,1L20.3,41.8z M17.9,46v-2.7
				h2.8V46H17.9z"/>
			<path class="st0" d="M58.3,36.7h-0.5v-1.7h-1c-0.4,0-0.7,0.3-0.7,0.7v1.7c0,0.4,0.3,0.7,0.7,0.7h0.8c0.2,0,0.4-0.1,0.5-0.2
				c0.1-0.1,0.2-0.3,0.2-0.5l0,0L58.3,36.7z"/>
			<path class="st0" d="M52.6,57.4l0.5,0.1c0.5,0.1,1,0.2,1.5,0.2c2.2,0.2,3,0.2,3.3,0.2l0,0c0.1,0,0.8,0,3.3-0.3
				c0.5-0.1,1.1-0.1,1.5-0.2l0.5-0.1l0.4-0.1l0.8-0.2l-1.4-1.4l-0.3,0.1l-0.3,0.1l-0.5,0.1c-0.5,0.1-1,0.2-1.5,0.2
				c-2.4,0.3-3.1,0.3-3.2,0.3s-1,0-3.2-0.2c-0.5,0-1-0.1-1.4-0.2l-0.5-0.1l-0.9-0.2l-0.2,0L50,56.7l1,0.3
				C51.5,57.2,52.1,57.3,52.6,57.4z"/>
			<path class="st0" d="M67,53.2v0.2l1.4,1.6l0.2-0.7c0.3-1.5,0.6-3.1,0.8-4.5c0.5-3.4,0.5-6.9,0.3-10.4c-0.1-0.7-0.2-1.3-0.4-2
				l-0.2-0.7l-1.4,1.5v0.2c0.1,0.4,0.2,0.9,0.2,1.3l0,0c0.3,3.2,0.2,6.5-0.3,9.7C67.5,50.6,67.3,51.9,67,53.2z"/>
			<path class="st0" d="M50.2,35.2c0.2-0.1,0.4-0.2,0.6-0.2l0.5-0.2c2-0.6,4-0.9,6-0.9h0.2c2,0,4.1,0.3,6,0.9l0.5,0.2
				c0.1,0,0.3,0.1,0.4,0.1l0.5,0.2l1.3-1.4l-0.8-0.3c-0.2-0.1-0.3-0.1-0.5-0.2l-0.5-0.2c-2.1-0.7-4.3-1-6.5-1h-1.1
				c-2.1,0-4.3,0.4-6.3,1l-0.5,0.2c-0.3,0.1-0.5,0.2-0.8,0.3L48.4,34l1.3,1.4L50.2,35.2z"/>
			<path class="st0" d="M65.2,58.2c-0.6,0.9-1.5,1.5-2.5,1.7c-1.5,0.4-3,0.6-4.5,0.7h-0.7H57c-1.7-0.1-3.3-0.3-4.9-0.8
				c-1.1-0.3-2-0.9-2.6-1.9l-0.3-0.4L47.8,59l0.2,0.3c0.8,1.2,1.9,2,3.2,2.4c1.7,0.5,3.5,0.8,5.2,0.8h1.8c1.8-0.1,3.5-0.3,5.2-0.8
				c1.3-0.3,2.4-1.1,3.1-2.2l0.2-0.3l-1.4-1.4L65.2,58.2z"/>
			<path class="st0" d="M46.8,39.7c0-0.4,0.1-0.7,0.2-1.1v-0.2l-1.4-1.5l-0.2,0.7c-0.1,0.6-0.2,1.2-0.3,1.8
				c-0.3,3.5-0.2,6.9,0.3,10.4c0.2,1.4,0.4,2.8,0.8,4.3l0.2,0.7l1.5-1.5V53c-0.3-1.2-0.5-2.5-0.6-3.6l0,0c-0.4-3.1-0.5-6.2-0.3-9.3
				L46.8,39.7z"/>
			<polygon class="st0" points="45.3,60.2 57.2,47.7 69.1,60.2 70.6,58.7 58.7,46.2 70.6,33.7 69.1,32.2 57.2,44.7 45.3,32.2 
				43.8,33.7 55.8,46.2 43.8,58.7 			"/>
		</g>
	</g>
</g>
</svg>
