<?xml version="1.0" encoding="utf-8"?>
<!-- Generator: Adobe Illustrator 27.9.0, SVG Export Plug-In . SVG Version: 6.00 Build 0)  -->
<svg version="1.1" id="Layer_1" xmlns="http://www.w3.org/2000/svg" xmlns:xlink="http://www.w3.org/1999/xlink" x="0px" y="0px"
	 viewBox="0 0 82 94.7" style="enable-background:new 0 0 82 94.7;" xml:space="preserve">
<style type="text/css">
	.st0{fill:#003366;}
</style>
<g id="Camada_2">
	<g id="Camada_1-2">
		<g id="Grupo_1370">
			<path id="Caminho_1515" class="st0" d="M41,0L0,23.7V71l41,23.7L82,71V23.7L41,0z M79.7,69.7L41,92L2.3,69.7V25L41,2.7L79.7,25
				V69.7z"/>
		</g>
		<path class="st0" d="M60.3,62.6c-0.2-1.1-0.5-2.2-0.7-3.3l-2.3-11.1c-1.5-7.2-3-14.5-4.6-21.7c-0.5-2.5-2-3.4-4.5-2.9l-10.7,2.2
			l-4.7,1c-1.5,0.3-3.1,0.6-4.6,1c-1.7,0.4-2.9,1.9-2.8,3.7v0.1l1,5.1l1.6,7.3V44c0.1,0.8,0.5,1.2,1.1,1.2c0.7,0.1,1.5-0.1,2.1-0.5
			c0.5-0.4,0.6-1.1,0.4-1.7c0-0.1,0-0.1,0-0.2c-0.6-2.9-1.2-5.8-1.8-8.6l0,0c6.7-1.4,13.3-2.8,20-4.2l0,0l0,0
			c0.2,0.8,0.3,1.7,0.5,2.5l1.2,5.4c1.4,6.6,2.8,13.2,4.2,19.8c0,0,0,0.1,0,0.1h-0.1c-6.7,1.4-13.3,2.8-20,4.2
			c-0.1-0.5-0.2-1.1-0.3-1.6s-0.3-1.1-0.3-1.7c0-0.4-0.3-0.9-0.6-1.1c-0.4-0.2-0.9-0.3-1.4-0.1h-0.2c-0.5,0-0.9,0.3-1.2,0.7
			c-0.2,0.4-0.3,0.8-0.2,1.3c0.4,1.7,0.7,3.3,1.1,5c0.2,1.2,0.5,2.3,0.7,3.4c0.3,2,2,3.5,4,3.4c0.4,0,0.7,0,1.1-0.1l19.1-4
			c2-0.3,3.4-2.3,3.1-4.3C60.3,62.8,60.3,62.7,60.3,62.6z M34.6,67.6c-0.2-1.1-0.5-2.3-0.7-3.4c-0.3-1.7-0.7-3.3-1.1-5l0,0H33l0.2,0
			h0.1c0.1,0.6,0.2,1.2,0.4,1.8s0.2,1,0.3,1.6c0.1,0.4,0.3,0.8,0.6,1c0.4,0.2,0.8,0.3,1.2,0.2l8.5-1.8c-1.2,1.2-1.2,3.1,0,4.2
			c0.6,0.6,1.3,0.9,2.1,0.9l0,0c1.6-0.1,2.9-1.4,3-3c0-0.8-0.3-1.6-0.9-2.1c-0.3-0.3-0.6-0.5-1-0.7l8.2-1.7c0.5,0,0.9-0.2,1.2-0.6
			c0.2-0.4,0.3-0.9,0.1-1.3c-1.4-6.6-2.8-13.2-4.2-19.8l-1.2-5.5c-0.2-0.8-0.3-1.6-0.5-2.5c-0.1-0.4-0.3-0.8-0.6-1.1
			c-0.4-0.2-0.8-0.3-1.2-0.2c-6.7,1.4-13.3,2.8-20,4.2c-0.4,0.1-0.8,0.3-1.1,0.6c-0.2,0.4-0.3,0.8-0.1,1.3c0.6,2.9,1.2,5.7,1.8,8.6
			c0,0.1,0.1,0.2,0.1,0.3l0,0c-0.2,0.1-0.3,0.1-0.5,0.1v-0.2L28,36.2l-1-4.9c-0.1-1,0.6-1.9,1.6-2.1c1.5-0.4,3-0.7,4.5-1l4.7-1
			L48.5,25c1.6-0.3,2.3,0.1,2.6,1.7c1.5,7.2,3.1,14.5,4.6,21.7l2.3,11.1c0.2,1.1,0.5,2.2,0.7,3.3c0.3,1.2-0.3,2.4-1.5,2.7
			c-0.1,0-0.2,0.1-0.4,0.1l-19.1,4c-1.3,0.4-2.6-0.3-3.1-1.5C34.6,67.9,34.6,67.8,34.6,67.6L34.6,67.6z M46.6,62.5
			c0.4,0,0.7,0.2,1,0.4c0.3,0.3,0.4,0.6,0.4,1c0,0.8-0.7,1.4-1.4,1.4l0,0c-0.4,0-0.7-0.1-1-0.4c-0.3-0.3-0.4-0.6-0.4-1l0,0
			c0-0.4,0.2-0.7,0.4-1C45.8,62.7,46.2,62.6,46.6,62.5L46.6,62.5z"/>
		<path class="st0" d="M41.3,27.5c-0.1,0-0.3,0-0.4,0.1l-4.2,0.9c-0.5,0-0.9,0.5-0.8,1c0,0,0,0,0,0c0,0.2,0.2,0.7,0.9,0.8H37
			l4.4-0.9l0.4-0.1c0.8-0.3,0.7-0.8,0.7-1C42.4,27.7,41.9,27.4,41.3,27.5C41.4,27.5,41.4,27.5,41.3,27.5z"/>
		<path class="st0" d="M38.5,54c-0.5-2.7-1.1-5.3-1.7-8c-0.1-0.5-0.3-1-0.7-1.3L36,44.6c-0.5-0.3-1.1-0.3-1.6-0.2l-4.1,0.9l-4.1,0.8
			c-1,0.2-1.7,1.1-1.5,2.1c0,0,0,0,0,0c0,0,0,0.1,0,0.1s0,0.3,0.1,0.5c0.5,2.5,1.1,5,1.6,7.5c0.3,1.3,0.8,1.9,1.9,1.9
			c0.3,0,0.6,0,0.9-0.1l6.9-1.4l0.9-0.2c1-0.1,1.8-1,1.7-2C38.6,54.4,38.6,54.2,38.5,54z M37,54.9C36.9,55,36.7,55,36.5,55l-0.9,0.2
			l-6.9,1.4c-0.2,0.1-0.4,0.1-0.7,0.1l0,0c0,0-0.1-0.1-0.2-0.6c-0.5-2.5-1.1-5-1.6-7.5c0-0.1-0.1-0.3-0.1-0.4l0,0
			c0-0.4,0-0.4,0.3-0.5l4.1-0.9l4.1-0.8c0.1,0,0.3,0,0.4,0h0.1c0,0,0.1,0.1,0.2,0.4c0.6,2.7,1.1,5.3,1.7,8C37,54.6,37,54.7,37,54.9z
			"/>
		<path class="st0" d="M36.1,44.7L36,44.6L36.1,44.7z"/>
		<path class="st0" d="M25,45.4l-0.2-1c-0.2-1-0.4-2.2-0.7-3.3c-0.3-1-1.3-1.6-2.3-1.4c-1.5,0.3-3,0.6-4.4,0.9
			c-1.1,0.2-1.8,1.2-1.6,2.3c0,0,0,0.1,0,0.1c0.3,1.5,0.6,2.9,0.9,4.2c0.1,1,1,1.7,2,1.7c0.2,0,0.3,0,0.5,0c1.2-0.2,2.5-0.5,4.1-0.9
			c0.8-0.2,1.8-0.8,1.7-2.6C25,45.5,25,45.4,25,45.4z M23,46.5c-1.6,0.4-2.9,0.6-4.1,0.8c-0.5,0.1-0.6,0-0.7-0.5
			c-0.3-1.3-0.6-2.6-0.9-4.2c-0.1-0.3,0.1-0.5,0.3-0.6c0,0,0.1,0,0.1,0c1.4-0.3,2.8-0.6,4.3-0.9h0.2c0.2,0,0.3,0.1,0.4,0.3
			c0.3,1.1,0.5,2.2,0.7,3.2l0.2,1C23.4,46.4,23.2,46.5,23,46.5z"/>
		<path class="st0" d="M28.1,62.2l-0.2-0.8c-0.2-0.8-0.4-1.8-0.6-2.7c-0.2-1-1.2-1.6-2.2-1.3c0,0-0.1,0-0.1,0l-0.8,0.2
			c-0.8,0.2-1.5,0.3-2.3,0.5c-1.1,0.1-1.9,1.1-1.8,2.2c0,0.1,0,0.3,0.1,0.4c0.2,1,0.4,2,0.7,3.2c0.2,0.9,1,1.6,1.9,1.6
			c0.1,0,0.3,0,0.4,0c1.2-0.2,2.4-0.5,3.5-0.7s1.5-1,1.5-2.3C28.1,62.3,28.1,62.2,28.1,62.2z M26.3,63.1c-1.1,0.2-2.2,0.5-3.4,0.7
			c-0.3,0-0.5,0-0.5-0.4c-0.3-1.1-0.5-2.1-0.6-3.1c-0.1-0.6,0-0.7,0.5-0.8c0.8-0.2,1.5-0.3,2.3-0.5l0.8-0.2h0.2
			c0.2,0,0.3,0.1,0.3,0.2c0.2,0.9,0.4,1.8,0.6,2.6l0.2,0.8C26.6,63,26.4,63,26.3,63.1z"/>
		<path class="st0" d="M51.4,45.6l-0.2-0.9c-0.2-0.7-0.3-1.5-0.5-2.2c-0.2-0.9-1.1-1.4-2-1.1c-0.5,0.1-1,0.2-1.5,0.3l-1,0.2
			c-0.3,0.1-0.6,0.2-0.8,0.4c0-0.1,0.1-0.2,0.1-0.3c0-0.1,0-0.1,0-0.2L45,40.1c-0.4-1.7-0.8-3.4-1.2-5.1c-0.2-0.8-1-1.4-1.9-1.2
			c0,0,0,0-0.1,0c-2.6,0.5-4.7,1-6.6,1.4c-0.9,0.2-1.5,1-1.3,1.9c0,0.1,0,0.1,0,0.2l0.3,1.2c0.3,1.6,0.7,3.3,1,4.9
			c0.1,0.4,0.3,0.8,0.6,1.1l0.2,0.1c0.3,0.2,0.6,0.3,1,0.3c0.2,0,0.3,0,0.5,0c2-0.4,4-0.8,6-1.3h0.2c0.3-0.1,0.5-0.2,0.7-0.3
			c0,0.2,0,0.4,0,0.6c0.1,0.9,0.3,1.8,0.5,2.7c0.2,0.8,0.9,1.4,1.8,1.4c0.2,0,0.3,0,0.5,0c0.9-0.2,1.8-0.4,2.6-0.6
			c0.8-0.2,1.4-0.9,1.4-1.7C51.4,45.8,51.4,45.7,51.4,45.6z M43.6,42.2h-0.2c-2,0.4-4,0.9-6,1.3c-0.3,0-0.3,0-0.4-0.3
			c-0.3-1.7-0.7-3.3-1-4.9L35.6,37c0-0.1,0-0.2,0.1-0.2c1.9-0.4,3.9-0.9,6.5-1.4h0.1c0.4,1.7,0.8,3.4,1.1,5l0.3,1.6
			C43.7,42.1,43.7,42.2,43.6,42.2z M49.6,46c-0.8,0.2-1.7,0.4-2.5,0.6c-0.3,0.1-0.3,0-0.4-0.2c-0.2-0.9-0.4-1.8-0.5-2.6
			c0-0.2,0-0.2,0.2-0.3l1-0.2l1.6-0.3h0.1c0.1,0,0.1,0,0.1,0c0.2,0.7,0.3,1.4,0.5,2.1l0.2,0.8C49.8,46,49.7,46,49.6,46z"/>
	</g>
</g>
</svg>
