<svg xmlns="http://www.w3.org/2000/svg" viewBox="0 0 82.03 94.72"><defs><style>.cls-1{fill:#14c3df;}</style></defs><g id="Camada_2" data-name="Camada 2"><g id="Camada_1-2" data-name="Camada 1"><g id="Grupo_1370" data-name="Grupo 1370"><path id="Caminho_1515" data-name="Caminho 1515" class="cls-1" d="M41,0,0,23.68V71L41,94.72,82,71V23.68ZM79.7,69.7,41,92,2.33,69.69V25L41,2.69,79.7,25Z"/></g><path class="cls-1" d="M60.27,62.6c-.21-1.12-.45-2.22-.69-3.33L57.25,48.18Q55,37.31,52.67,26.44c-.51-2.46-2-3.44-4.48-2.94L37.48,25.75l-4.69,1c-1.5.31-3.06.63-4.59,1a3.55,3.55,0,0,0-2.81,3.68v.09l1.05,5.05L28,43.83,28,44c.11.77.47,1.19,1.08,1.25a3.06,3.06,0,0,0,2.1-.49,1.36,1.36,0,0,0,.36-1.65c0-.06,0-.11-.05-.17-.59-2.87-1.19-5.75-1.82-8.62v0q10-2.09,20-4.22h0v0c.16.83.34,1.66.52,2.49L51.39,38q2.07,9.9,4.17,19.8a.74.74,0,0,1,0,.12l-.07,0q-10,2.07-20,4.19c-.09-.54-.21-1.07-.33-1.6s-.26-1.11-.35-1.68a1.55,1.55,0,0,0-.62-1.12,1.64,1.64,0,0,0-1.36-.14l-.19,0a1.8,1.8,0,0,0-1.25.66,1.6,1.6,0,0,0-.17,1.28c.37,1.65.71,3.3,1.06,5,.23,1.15.47,2.29.72,3.43A3.91,3.91,0,0,0,37,71.34a5.2,5.2,0,0,0,1.09-.12l19.14-4A3.75,3.75,0,0,0,60.27,62.6Zm-25.69,5c-.25-1.14-.48-2.28-.72-3.42-.35-1.65-.69-3.31-1.06-5v0l.16,0,.24-.05.12,0c.1.6.23,1.19.37,1.79s.24,1,.33,1.57a1.53,1.53,0,0,0,.59,1,1.56,1.56,0,0,0,1.25.15l8.54-1.79a3,3,0,0,0,0,4.23,3,3,0,0,0,2.1.87h0a3.11,3.11,0,0,0,3-3,3,3,0,0,0-.86-2.12,2.94,2.94,0,0,0-1-.68l8.18-1.72A1.69,1.69,0,0,0,57,58.84a1.78,1.78,0,0,0,.14-1.34Q55,47.61,52.92,37.71l-1.15-5.49c-.18-.82-.35-1.63-.51-2.45a1.68,1.68,0,0,0-.64-1.12,1.59,1.59,0,0,0-1.24-.16q-10,2.13-20.05,4.22a1.63,1.63,0,0,0-1.06.63,1.57,1.57,0,0,0-.13,1.26q.93,4.31,1.81,8.61a2.44,2.44,0,0,0,.1.33h0a1.72,1.72,0,0,1-.52.11l0-.16L28,36.24l-1-4.88a2,2,0,0,1,1.62-2.1c1.5-.36,3.05-.68,4.54-1l4.69-1L48.51,25c1.62-.34,2.29.09,2.63,1.73q2.3,10.86,4.58,21.73l2.33,11.09c.24,1.1.47,2.2.68,3.3a2.17,2.17,0,0,1-1.86,2.76l-19.13,4A2.41,2.41,0,0,1,34.58,67.64Zm12-5.08a1.45,1.45,0,0,1,1,.44,1.4,1.4,0,0,1,.4,1,1.52,1.52,0,0,1-1.42,1.42h0a1.39,1.39,0,0,1-1-.41,1.44,1.44,0,0,1-.43-1h0a1.43,1.43,0,0,1,.42-1,1.39,1.39,0,0,1,1-.41Z"/><path class="cls-1" d="M41.35,27.47a3.07,3.07,0,0,0-.42.07l-4.15.88a.9.9,0,0,0-.82,1c0,.22.15.74.94.75H37l4.37-.92.39-.1c.79-.27.73-.82.68-1A.87.87,0,0,0,41.35,27.47Z"/><path class="cls-1" d="M38.5,54.05q-.81-4-1.68-8a2.25,2.25,0,0,0-.69-1.3L36,44.6a2.22,2.22,0,0,0-1.63-.17l-4.07.86-4.09.85a1.83,1.83,0,0,0-1.52,2.12s0,.11,0,.14,0,.31.08.51c.53,2.51,1.06,5,1.6,7.54.27,1.29.82,1.86,1.87,1.86a4,4,0,0,0,.86-.1l6.87-1.44.9-.19A1.87,1.87,0,0,0,38.5,54.05ZM37,54.88a1.18,1.18,0,0,1-.49.17l-.9.19-6.87,1.44a1.81,1.81,0,0,1-.67.07h0s-.1-.12-.21-.63c-.53-2.51-1.07-5-1.59-7.54a2.73,2.73,0,0,1-.07-.39v0c0-.42.05-.44.28-.48l4.09-.86L34.64,46a1.92,1.92,0,0,1,.38,0h.11s.09.08.16.44q.87,4,1.68,8A1.55,1.55,0,0,1,37,54.88Z"/><path class="cls-1" d="M36.13,44.74,36,44.6Z"/><path class="cls-1" d="M25,45.38l-.21-1c-.21-1-.44-2.15-.74-3.3a1.92,1.92,0,0,0-2.32-1.39c-1.49.27-3,.58-4.38.92A2,2,0,0,0,15.72,43c.28,1.54.58,2.92.89,4.24a2,2,0,0,0,2,1.7,2.89,2.89,0,0,0,.5,0c1.23-.23,2.54-.5,4.15-.87.81-.18,1.77-.78,1.67-2.56A.51.51,0,0,0,25,45.38Zm-2,1.17c-1.58.36-2.88.63-4.08.85-.45.08-.63,0-.74-.49-.31-1.29-.59-2.64-.87-4.15a.49.49,0,0,1,.4-.64c1.39-.33,2.84-.63,4.3-.9l.16,0a.34.34,0,0,1,.37.26c.28,1.11.51,2.24.72,3.23l.2,1C23.44,46.44,23.2,46.49,23,46.55Z"/><path class="cls-1" d="M28.11,62.16l-.18-.83c-.18-.83-.37-1.77-.64-2.7A1.82,1.82,0,0,0,25,57.34l-.81.16c-.77.16-1.55.32-2.33.5a2,2,0,0,0-1.72,2.59c.18,1,.4,2,.66,3.16a1.92,1.92,0,0,0,1.92,1.6,3,3,0,0,0,.42,0c1.19-.21,2.36-.48,3.46-.73s1.52-1,1.5-2.27A.92.92,0,0,0,28.11,62.16Zm-1.84.9c-1.08.25-2.23.51-3.38.72-.29,0-.45,0-.55-.39-.26-1.09-.47-2.1-.64-3.07-.1-.58,0-.67.53-.8.76-.17,1.53-.33,2.3-.48l.81-.17.17,0c.22,0,.26.12.28.2.25.88.44,1.8.61,2.6l.16.77C26.56,63,26.42,63,26.27,63.06Z"/><path class="cls-1" d="M51.4,45.56l-.19-.88c-.16-.73-.32-1.46-.53-2.18a1.63,1.63,0,0,0-2-1.13c-.52.1-1,.22-1.55.33l-1,.22a2,2,0,0,0-.81.36,1.86,1.86,0,0,0,.06-.34.68.68,0,0,0,0-.2l-.35-1.62Q44.4,37.57,43.82,35a1.55,1.55,0,0,0-1.91-1.15c-2.63.53-4.66,1-6.57,1.4a1.63,1.63,0,0,0-1.24,2.07l.26,1.25c.35,1.64.7,3.28,1,4.92A2,2,0,0,0,36,44.6l.17.14a1.7,1.7,0,0,0,1,.33,2.59,2.59,0,0,0,.47,0c2-.4,4-.84,6-1.27l.23,0a1.77,1.77,0,0,0,.73-.35,2,2,0,0,0,0,.64c.14.89.33,1.8.55,2.73a1.76,1.76,0,0,0,1.75,1.43,2.49,2.49,0,0,0,.46,0c.87-.18,1.75-.36,2.61-.57a1.82,1.82,0,0,0,1.43-1.72A.71.71,0,0,0,51.4,45.56Zm-7.85-3.39-.23,0c-2,.43-4,.86-6,1.27-.27,0-.31,0-.38-.27-.34-1.65-.69-3.3-1-4.94L35.63,37c0-.14,0-.2.06-.22,1.9-.43,3.92-.86,6.54-1.39h.07c.39,1.67.75,3.36,1.11,5L43.74,42C43.72,42.14,43.67,42.15,43.55,42.17ZM49.62,46c-.84.21-1.69.38-2.55.56-.29.06-.32,0-.38-.22-.21-.89-.39-1.77-.53-2.61,0-.19,0-.24.22-.29l1-.22L49,42.9h.1c.06,0,.1,0,.11,0,.19.69.35,1.39.5,2.08l.17.76C49.81,46,49.73,46,49.62,46Z"/></g></g></svg>