<svg xmlns="http://www.w3.org/2000/svg" viewBox="0 0 82.03 94.72"><defs><style>.cls-1{fill:#14c3df;}</style></defs><g id="Camada_2" data-name="Camada 2"><g id="Camada_1-2" data-name="Camada 1"><g id="Grupo_1370" data-name="Grupo 1370"><path id="Caminho_1515" data-name="Caminho 1515" class="cls-1" d="M41,0,0,23.68V71L41,94.72,82,71V23.68ZM79.7,69.7,41,92,2.33,69.69V25L41,2.69,79.7,25Z"/></g><path class="cls-1" d="M36.28,53.6a1,1,0,0,0-.75-.18,1,1,0,0,0-.65.41,14.9,14.9,0,0,1-1.41,1.66,13.38,13.38,0,1,1,0-18.92,13.85,13.85,0,0,1,1.33,1.54,1,1,0,0,0,1.41.22,1,1,0,0,0,.4-.66,1,1,0,0,0-.19-.75,14.37,14.37,0,0,0-1.53-1.78A15.36,15.36,0,1,0,36.51,55,1,1,0,0,0,36.28,53.6Z"/><path class="cls-1" d="M22.2,38.88a2,2,0,0,0-3,1.72V51.29a2,2,0,0,0,1,1.72,2,2,0,0,0,1,.27,2.07,2.07,0,0,0,1-.27l9.26-5.35a2,2,0,0,0,0-3.43Zm8.25,7-9.21,5.38,0-10.64Z"/><path class="cls-1" d="M67.4,61.84,57,58.1,46.89,61.82l-2.36-1.77L57,38.44,69.45,60ZM47.15,59.52l.07,0L57,56l9.85,3.55L57,42.44Z"/><path class="cls-1" d="M70,57.86h-4L57,42.44l-8.9,15.42h-4a2.72,2.72,0,0,1-2.35-4.08L54.36,31.89a3.06,3.06,0,0,1,5.3,0L72.3,53.79A2.72,2.72,0,0,1,70,57.86Zm-2.89-2H70a.7.7,0,0,0,.62-.36.69.69,0,0,0,0-.71L57.93,32.89a1,1,0,0,0-.92-.53,1,1,0,0,0-.92.53L43.45,54.78a.72.72,0,0,0,.62,1.08H47L57,38.44Z"/></g></g></svg>