<?xml version="1.0" encoding="utf-8"?>
<!-- Generator: Adobe Illustrator 27.4.0, SVG Export Plug-In . SVG Version: 6.00 Build 0)  -->
<svg version="1.1" id="Layer_1" xmlns="http://www.w3.org/2000/svg" xmlns:xlink="http://www.w3.org/1999/xlink" x="0px" y="0px"
	 viewBox="0 0 82 94.7" style="enable-background:new 0 0 82 94.7;" xml:space="preserve">
<style type="text/css">
	.st0{fill:#C42D32;}
</style>
<g id="Camada_2">
	<g id="Camada_1-2">
		<g id="Grupo_1370">
			<path id="Caminho_1515" class="st0" d="M41,0L0,23.7V71l41,23.7L82,71V23.7L41,0z M79.7,69.7L41,92L2.3,69.7V25L41,2.7L79.7,25
				V69.7z"/>
			<g>
				<path class="st0" d="M12.5,51.7c0.1-1.4,0.1-2.9,0.3-4.3c0.2-1.3,0.6-2.6,1-3.9c0.3-0.9,0.6-1.8,1-2.6c0.6-1.4,1.2-2.7,2.1-3.9
					c0.8-1.2,1.7-2.4,2.6-3.4c0.8-0.9,1.7-1.8,2.6-2.6c0.8-0.7,1.7-1.4,2.7-2c1.1-0.7,2.2-1.3,3.3-1.9c0.9-0.4,1.7-0.8,2.6-1.1
					c1.3-0.4,2.6-0.8,3.9-1.1c3.6-0.6,7.2-0.6,10.7,0.1c1.9,0.4,3.8,1,5.6,1.8c0.7,0.4,1.5,0.7,2.1,1.1c0.9,0.5,1.8,1.1,2.6,1.7
					c0.9,0.6,1.7,1.3,2.5,2.1c1,1,2,2,2.9,3.1c0.7,0.9,1.3,1.8,2,2.8c0.3,0.5,0.6,1,0.8,1.5c1.2,2.2,1.2,3,1.8,4.5
					c0.8,2,1.1,4.1,1.3,6.2c0.2,2.1,0.1,4.2-0.3,6.3c-0.3,1.5-0.6,3.1-1.2,4.6c-0.3,0.7-0.1,1.1,0.5,1.5c1,0.6,2,1.3,3,2
					c0.6,0.4,0.5,0.8-0.1,1.1c-1.3,0.6-2.6,1.3-4,2c-1.3,0.6-2.5,1.2-3.8,1.8c-0.8,0.4-1.6,0.9-2.4,1.3c-0.3,0.1-0.8,0.2-1.1,0.1
					c-0.2-0.1-0.2-0.6-0.2-0.8c0.2-2.9,0.4-5.9,0.6-8.8c0.1-0.8,0.1-1.7,0.1-2.5c0-0.3,0.2-0.6,0.4-0.7c0.3-0.1,0.7,0,0.9,0.1
					c0.7,0.4,1.4,1,2,1.5c0.1,0.1,0.2,0.2,0.3,0.3c0.4,0.4,0.9,0.3,1.2-0.2c0-0.1,0.1-0.2,0.1-0.2c1-3.6,1.3-7.3,0.7-10.9
					c-0.3-2.1-1-4.1-1.8-6.1c-0.7-1.6-1.6-3.1-2.6-4.5c-1.2-1.6-2.5-3-4-4.2c-1.2-0.9-2.4-1.9-3.8-2.6c-1.2-0.7-2.4-1.2-3.7-1.7
					C46,28,44,27.7,42,27.4c-1.6-0.2-3.3-0.2-4.9,0.1c-1.8,0.3-3.7,0.5-5.4,1.2c-1.4,0.6-2.8,1.2-4.1,1.9c-1.7,0.9-3.2,2-4.5,3.4
					c-1.1,1.1-2.1,2.3-3,3.5c-0.7,0.9-1.3,1.9-1.9,2.9c-0.3,0.6-0.7,1.2-0.9,1.8c-0.4,1.2-0.8,2.5-1.2,3.7c-0.7,2.1-0.7,4.3-0.7,6.5
					c0,2.7,0.5,5.4,1.5,8c0.7,1.8,1.6,3.5,2.6,5.1c0.6,0.9,1.3,1.7,2,2.5c0.4,0.5,0.3,1.1-0.2,1.6c-0.2,0.2-0.3,0.3-0.5,0.5
					c-0.6,0.4-1.1,0.5-1.6,0c-0.6-0.8-1.2-1.5-1.8-2.3c-0.4-0.6-0.8-1.2-1.2-1.8c-0.3-0.6-0.7-1.2-1-1.8c-0.7-1.6-1.4-3.2-1.9-4.8
					c-0.7-2.3-0.9-4.8-0.9-7.2C12.6,51.9,12.6,51.8,12.5,51.7C12.5,51.7,12.5,51.7,12.5,51.7z"/>
				<path class="st0" d="M40,42.1c1.2,0.1,2.6,0.1,4,0.3c1.1,0.2,2.1,0.5,3.1,0.9c1,0.4,2.1,0.8,3,1.4c1.2,0.7,2.3,1.6,3.5,2.4
					c0.2,0.2,0.4,0.3,0.6,0.5c0.6,0.5,0.7,1,0.1,1.6c-0.3,0.2-0.5,0.5-0.8,0.8c-0.5,0.5-1,0.5-1.5,0.1c-0.9-0.7-1.7-1.4-2.7-2.1
					c-0.5-0.3-1-0.6-1.6-0.9c-2.9-1.3-5.8-2-9-1.8c-1.8,0.1-3.5,0.5-5.2,1c-2,0.7-3.9,1.8-5.5,3.1c-0.3,0.3-0.7,0.6-1,0.8
					c-0.3,0.2-0.6,0.1-0.9-0.2c-0.4-0.4-0.8-0.7-1.2-1.1c-0.4-0.3-0.4-1,0.1-1.3c1.4-1,2.7-2.1,4.1-2.9c1.4-0.8,2.9-1.5,4.5-1.9
					c1-0.2,2-0.5,3-0.6C37.7,42.1,38.8,42.1,40,42.1z"/>
				<path class="st0" d="M45.7,51.1c1,0.6,2,1.2,3,1.9c0.6,0.4,0.6,1.1,0.1,1.6c-0.3,0.3-0.5,0.6-0.8,0.8c-0.5,0.5-0.9,0.5-1.4,0
					c-1.7-1.4-3.6-2.3-5.8-2.5c-1.9-0.2-3.7,0.1-5.3,0.9c-0.9,0.4-1.6,1-2.4,1.5c-0.7,0.5-1,0.6-1.6-0.1c-0.2-0.3-0.5-0.5-0.7-0.7
					c-0.6-0.6-0.6-1.1,0.1-1.6c1.6-1.3,3.4-2.3,5.4-2.9c1.2-0.3,2.9-0.4,4.1-0.4C42.4,49.7,44.4,50.3,45.7,51.1z"/>
				<path class="st0" d="M44.1,58.9c0,0.2,0,0.4-0.1,0.4c-0.5,0.5-1,1.1-1.6,1.5c-0.2,0.1-0.6,0-0.9-0.1c-1.1-0.7-2.1-0.7-3.2-0.2
					c-0.2,0.1-0.4,0.2-0.6,0.3c-0.3,0.2-0.6,0.1-0.8-0.2c-0.4-0.4-0.8-0.8-1.2-1.2c-0.4-0.3-0.3-1,0.1-1.3c2.1-1.5,4.3-1.5,6.7-0.8
					c0.5,0.2,0.9,0.5,1.3,0.8C44,58.4,44,58.7,44.1,58.9z"/>
			</g>
		</g>
	</g>
</g>
</svg>
