<svg xmlns="http://www.w3.org/2000/svg" viewBox="0 0 82.03 94.72"><defs><style>.cls-1{fill:#763b3d;}</style></defs><g id="Camada_2" data-name="Camada 2"><g id="Camada_1-2" data-name="Camada 1"><g id="Grupo_1371" data-name="Grupo 1371"><g id="Grupo_1371-2" data-name="Grupo 1371-2"><path id="Caminho_1537" data-name="Caminho 1537" class="cls-1" d="M41,94.72,0,71V23.68L41,0,82,23.68V71ZM2.33,69.7,41,92,79.7,69.7V25L41,2.69,2.33,25Z"/></g><path class="cls-1" d="M36.11,48.61a.38.38,0,0,1-.53,0l-1.42-1.39a.4.4,0,0,1,0-.54l.48-.48L36,47.57l.3-.33.13-.14.31.3a.38.38,0,0,1,0,.53Z"/><path class="cls-1" d="M45.79,69.33a2.31,2.31,0,0,1-.43-.17L45,69l.29-.21.53-.32a18.42,18.42,0,0,0,1.56-1l.48-.35c.45-.33.9-.68,1.36-1.05,2-1.64,2.66-2.29,2.82-2.45l0,0c.07-.07.66-.67,2.43-2.91.38-.47.73-1,1.06-1.41l.33-.49a17.35,17.35,0,0,0,.91-1.51l.53-.85.28.58a4.57,4.57,0,0,1,.17.74v.07l0,.06c-.2.36-.42.71-.66,1.08l-.34.5c-.32.47-.68,1-1.06,1.44-1.78,2.27-2.38,2.88-2.44,2.94l0,0c-.17.16-.86.83-2.86,2.47-.47.37-.93.73-1.39,1.06l-.49.35c-.71.48-1.26.8-1.6,1l-.18.1"/><path class="cls-1" d="M47.8,39.44c-.11-.1-2.84-2.49-5.13-2.2a5.62,5.62,0,0,0-1,.21l-.61.2a19.63,19.63,0,0,0-2,.86l-.53.28a25.56,25.56,0,0,0-6,4.35l-.2.21c-.12.11-.23.23-.34.35l-.32.3-.21.2a25.91,25.91,0,0,0-4.35,6l-.27.52a18.73,18.73,0,0,0-.87,2l-.2.6a8.49,8.49,0,0,0-.21,1c-.29,2.29,2.11,5,2.21,5.13a55.77,55.77,0,0,0,8.74,8.31,48.41,48.41,0,0,0,7.77,5l.12,0a7,7,0,0,0,6.57,0A27,27,0,0,0,56,69.11l.39-.38h0l.41-.43h0l.34-.32h0l.37-.38a27,27,0,0,0,3.6-4.94,7,7,0,0,0,0-6.57L61.08,56a48,48,0,0,0-5-7.77A56.75,56.75,0,0,0,47.8,39.44Zm6.9,9.67a43.93,43.93,0,0,1,4.58,7.29l0,.12a5.84,5.84,0,0,1-.13,5.54,28.44,28.44,0,0,1-3.14,4.34l-.36.4-.21.21h0l-.34.34a27.88,27.88,0,0,1-4.71,3.47A5.84,5.84,0,0,1,44.9,71l-.12,0a44.31,44.31,0,0,1-7.28-4.58,50.6,50.6,0,0,1-8.23-7.79c0-.05-2.1-2.42-1.83-4.22a4.73,4.73,0,0,1,.19-.8l.19-.56a17.83,17.83,0,0,1,.84-1.85l.27-.51a26.24,26.24,0,0,1,4.21-5.7l0,0h0l0,0,.07-.08h0A25.82,25.82,0,0,1,39,40.55l.52-.28a17.52,17.52,0,0,1,1.84-.83l.57-.19a5.47,5.47,0,0,1,.8-.2c1.8-.26,4.17,1.8,4.21,1.84A49.75,49.75,0,0,1,54.7,49.11Z"/><path class="cls-1" d="M47.57,52.83a1.23,1.23,0,0,1-1.75,0L43.5,50.56a1.23,1.23,0,0,1,0-1.75l1.88-1.92-.28-.83a1.23,1.23,0,0,0-.6-.67,1.17,1.17,0,0,0-.9,0,1.05,1.05,0,0,0-.44.27,1.18,1.18,0,0,0-.28,1.22l.24.7a.63.63,0,0,1-.15.65A.64.64,0,0,1,41.9,48l-.24-.71a2.46,2.46,0,0,1,.58-2.54,2.38,2.38,0,0,1,.92-.57,2.44,2.44,0,0,1,3.11,1.5l.16.44.17,0a1.25,1.25,0,0,1,.95.36l2.33,2.28a1.25,1.25,0,0,1,0,1.76ZM44.4,49.67l2.29,2.25L49,49.6l-2.29-2.25Z"/><path class="cls-1" d="M38.12,54.66H38l-.91-.92a2.45,2.45,0,0,0-4.18,1.73,2.42,2.42,0,0,0,.72,1.72l.88.9v.09a1.19,1.19,0,0,0,.36.93l2.29,2.32a1.27,1.27,0,0,0,1.76,0l2.35-2.34a1.21,1.21,0,0,0,.36-.88,1.23,1.23,0,0,0-.36-.87L39,55A1.26,1.26,0,0,0,38.12,54.66Zm-1.22.66L35.23,57l-.68-.68a1.12,1.12,0,0,1-.33-.71v0a.86.86,0,0,1,0-.16.13.13,0,0,0,0-.06.51.51,0,0,1,0-.13l0-.1a.92.92,0,0,0,0-.09,1,1,0,0,1,.08-.15l0,0a.85.85,0,0,1,.14-.19,1.17,1.17,0,0,1,1.66,0l.31.3h0Zm3.49,2.89-2.31,2.3-2.26-2.27,2.3-2.3Z"/><path class="cls-1" d="M18.52,32l4.79-6.9v-.06H19V23.18h7.3V24.5l-4.69,6.8v.07h4.77v1.88H18.52Z"/><path class="cls-1" d="M28.33,36.11l3.61-5.19v-.05H28.66V29.46h5.5v1l-3.53,5.12v0h3.58V37H28.33Z"/><path class="cls-1" d="M24.19,43.66l2.41-3.48v0H24.4V39.2h3.68v.67l-2.36,3.42v0h2.4v1H24.19Z"/></g></g></g></svg>