<svg xmlns="http://www.w3.org/2000/svg" viewBox="0 0 82.03 94.72"><defs><style>.cls-1,.cls-2{fill:#c42d32;}.cls-2{fill-rule:evenodd;}</style></defs><g id="Camada_2" data-name="Camada 2"><g id="Camada_1-2" data-name="Camada 1"><g id="Grupo_1370" data-name="Grupo 1370"><path id="Caminho_1515" data-name="Caminho 1515" class="cls-1" d="M41,0,0,23.68V71L41,94.72,82,71V23.68ZM79.7,69.7,41,92,2.33,69.69V25L41,2.69,79.7,25Z"/><path class="cls-1" d="M28,36.79a.4.4,0,0,1-.39-.38l0-2A.38.38,0,0,1,28,34h.69l0,2,.46,0h.2v.43a.38.38,0,0,1-.38.39Z"/><path class="cls-1" d="M20.06,58.66a2.13,2.13,0,0,1-.19-.43l-.13-.36.36.06.61.16c.37.1,1,.26,1.83.41l.59.1c.56.08,1.14.16,1.73.21,2.61.26,3.57.28,3.8.28h.05c.1,0,1,0,3.84-.35.62-.07,1.22-.16,1.78-.26l.6-.11a16.7,16.7,0,0,0,1.74-.43l1-.23-.22.62A4,4,0,0,1,37,59L37,59l-.06,0c-.41.11-.82.21-1.25.3l-.61.12c-.58.11-1.18.2-1.81.28-2.9.35-3.78.36-3.87.36h-.06c-.23,0-1.21,0-3.83-.29-.61-.06-1.2-.14-1.76-.23l-.61-.1a19,19,0,0,1-1.86-.44L21.06,59"/><path class="cls-1" d="M43,38.61c0-.16-.26-3.84-2.11-5.28a6.12,6.12,0,0,0-.86-.56l-.58-.29a19.85,19.85,0,0,0-2.05-.82l-.58-.18a26.16,26.16,0,0,0-7.43-1.16H27.87a26.27,26.27,0,0,0-7.43,1.16l-.57.18a20.08,20.08,0,0,0-2.06.82l-.58.29a6.77,6.77,0,0,0-.86.56c-1.85,1.44-2.09,5.12-2.11,5.28a57.92,57.92,0,0,0,.32,12.26,49.77,49.77,0,0,0,2,9.17l.05.12a7.12,7.12,0,0,0,4.76,4.7,28.22,28.22,0,0,0,6.14,1h.56l.6,0h1a28.22,28.22,0,0,0,6.14-1,7.1,7.1,0,0,0,4.76-4.7l0-.12a49.46,49.46,0,0,0,2-9.17A57.45,57.45,0,0,0,43,38.61ZM41,50.52a44.44,44.44,0,0,1-1.94,8.54l0,.12a5.94,5.94,0,0,1-4.08,3.9,28.23,28.23,0,0,1-5.39.86L29,64h-.79a28.77,28.77,0,0,1-5.88-.89,5.94,5.94,0,0,1-4.08-3.9l-.06-.12a44.44,44.44,0,0,1-1.94-8.54A50.11,50.11,0,0,1,16,39c0-.06.22-3.25,1.71-4.35a5.64,5.64,0,0,1,.71-.44l.55-.26a17.74,17.74,0,0,1,1.92-.73l.57-.17A26.13,26.13,0,0,1,28.54,32h.2a26.06,26.06,0,0,1,7.12,1.07l.57.17a18.81,18.81,0,0,1,1.93.73l.54.26a6.72,6.72,0,0,1,.72.44c1.48,1.1,1.71,4.29,1.71,4.35A51.22,51.22,0,0,1,41,50.52Z"/><path class="cls-1" d="M33.21,48.08A1.27,1.27,0,0,1,32,46.82l0-3.31a1.28,1.28,0,0,1,1.25-1.28l2.73,0,.4-.79a1.22,1.22,0,0,0,0-.92,1.14,1.14,0,0,0-.61-.68,1.16,1.16,0,0,0-.51-.12,1.2,1.2,0,0,0-1.08.68L33.8,41a.65.65,0,0,1-.58.37.63.63,0,0,1-.27-.06.66.66,0,0,1-.32-.86l.34-.68A2.48,2.48,0,1,1,37.44,42l-.2.42.13.12a1.26,1.26,0,0,1,.43.94l0,3.31A1.27,1.27,0,0,1,36.58,48Zm0-4.56,0,3.27,3.31,0,0-3.26Z"/><path class="cls-1" d="M25.1,42.59,25,42.52V41.2a2.49,2.49,0,0,0-4.24-1.76,2.44,2.44,0,0,0-.73,1.76v1.28l-.08.06a1.29,1.29,0,0,0-.41.93v3.32a1.27,1.27,0,0,0,1.26,1.26h3.37a1.26,1.26,0,0,0,.9-.37,1.24,1.24,0,0,0,.37-.89V43.48A1.29,1.29,0,0,0,25.1,42.59Zm-1.36-.41H21.35v-1a1.19,1.19,0,0,1,.27-.75l0,0,.11-.11.05,0,.11-.08.1,0,.08,0,.17-.05,0,0,.24,0a1.19,1.19,0,0,1,1.19,1.2v.44h0Zm.43,4.59H20.86V43.5h3.31Z"/><polygon class="cls-2" points="56.84 53.59 48.38 49.17 58.39 62.61 60.3 57.34 69.21 61.52 58.52 48.99 56.84 53.59 56.84 53.59"/><polygon class="cls-2" points="57.17 40.45 47.78 42.17 63.95 46.61 62.21 41.28 71.8 39.09 55.66 35.79 57.17 40.45 57.17 40.45"/></g></g></g></svg>