<svg xmlns="http://www.w3.org/2000/svg" viewBox="0 0 82.03 94.72"><defs><style>.cls-1,.cls-2{fill:#14c3df;}.cls-2{fill-rule:evenodd;}</style></defs><g id="Camada_2" data-name="Camada 2"><g id="Camada_1-2" data-name="Camada 1"><g id="Grupo_1370" data-name="Grupo 1370"><path id="Caminho_1515" data-name="Caminho 1515" class="cls-1" d="M41,0,0,23.68V71L41,94.72,82,71V23.68ZM79.7,69.7,41,92,2.33,69.69V25L41,2.69,79.7,25Z"/></g><path class="cls-1" d="M24.62,62.79l-14.5,0a2.38,2.38,0,0,1-2.36-2.38l.08-26.07a2.37,2.37,0,0,1,2.37-2.36L24.7,32a2.4,2.4,0,0,1,1.68.71,2.33,2.33,0,0,1,.68,1.67L27,60.42A2.38,2.38,0,0,1,24.62,62.79ZM10.21,32.93A1.37,1.37,0,0,0,8.84,34.3L8.76,60.37a1.37,1.37,0,0,0,1.36,1.37l14.5,0A1.39,1.39,0,0,0,26,60.42l.07-26.07a1.3,1.3,0,0,0-.39-1,1.4,1.4,0,0,0-1-.41Z"/><path class="cls-1" d="M19.13,60.25a.36.36,0,0,1-.37.37H16a.35.35,0,0,1-.36-.37v-.93A.36.36,0,0,1,16,59h2.79a.38.38,0,0,1,.37.37Z"/><path class="cls-1" d="M25.33,57.8l-15.9,0L9.5,34.31l15.9,0Zm-14.9-1,13.91,0,.06-21.45-13.9,0Z"/><path class="cls-1" d="M72.13,56.46h-39a2.54,2.54,0,0,1-2.34-2.69V41.6a2.54,2.54,0,0,1,2.34-2.69h39a2.53,2.53,0,0,1,2.33,2.69V53.77A2.53,2.53,0,0,1,72.13,56.46Zm-39-16.55a1.55,1.55,0,0,0-1.34,1.69V53.77a1.55,1.55,0,0,0,1.34,1.69h39a1.54,1.54,0,0,0,1.33-1.69V41.6a1.54,1.54,0,0,0-1.33-1.69Z"/><path class="cls-1" d="M72.34,54.23H32.88V41.13H72.34Zm-38.46-1H71.34V42.13H33.88Z"/><path class="cls-1" d="M40.65,52.08a4.4,4.4,0,1,1,4.23-4.4A4.31,4.31,0,0,1,40.65,52.08Zm0-7.79a3.4,3.4,0,1,0,3.23,3.39A3.32,3.32,0,0,0,40.65,44.29Z"/><path class="cls-1" d="M70.45,52.54H46V42.86H70.45ZM47,51.54H69.45V43.86H47Z"/><path class="cls-1" d="M36,47.68a4.78,4.78,0,0,1,.18-1.32H34.46V49h1.69A4.78,4.78,0,0,1,36,47.68Z"/><path class="cls-1" d="M30.46,40.49a.54.54,0,0,1-.25-.06,9.55,9.55,0,0,0-1-.49.5.5,0,1,1,.39-.92,11.49,11.49,0,0,1,1.13.54.5.5,0,0,1-.25.93Z"/><path class="cls-1" d="M29.09,56.51a.52.52,0,0,1-.47-.33.5.5,0,0,1,.3-.64,10.26,10.26,0,0,0,1.29-.6.5.5,0,1,1,.49.87,9.88,9.88,0,0,1-1.43.66A.39.39,0,0,1,29.09,56.51Z"/><path class="cls-1" d="M30.53,61.84a.5.5,0,0,1-.48-.35.51.51,0,0,1,.33-.63,13.92,13.92,0,0,0,6.28-4,.5.5,0,0,1,.75.66,15,15,0,0,1-6.74,4.35Z"/><path class="cls-1" d="M37,38.73a.5.5,0,0,1-.37-.17,13.85,13.85,0,0,0-6.1-4,.5.5,0,1,1,.31-1,14.85,14.85,0,0,1,6.54,4.29.49.49,0,0,1-.05.7A.46.46,0,0,1,37,38.73Z"/><path class="cls-2" d="M50.1,48.37l-1-1,1-1-1.51-1.5v2L47.72,46l-.31.3,1.05,1.05-1.05,1.06.31.31.86-.87v2l1.52-1.52ZM49,45.79l.52.54-.52.52V45.79Zm0,2,.52.53-.52.53V47.82Z"/></g></g></svg>