<svg xmlns="http://www.w3.org/2000/svg" viewBox="0 0 82.03 94.72"><defs><style>.cls-1{fill:#14c3df;}</style></defs><g id="Camada_2" data-name="Camada 2"><g id="Camada_1-2" data-name="Camada 1"><g id="Grupo_1370" data-name="Grupo 1370"><path id="Caminho_1515" data-name="Caminho 1515" class="cls-1" d="M41,0,0,23.68V71L41,94.72,82,71V23.68ZM79.7,69.7,41,92,2.33,69.69V25L41,2.69,79.7,25Z"/></g><polygon class="cls-1" points="25.31 51.03 26.25 49.06 17.07 49.06 8.68 61.43 11.12 61.43 18.15 51.03 25.31 51.03"/><polygon class="cls-1" points="33.67 28.01 36.34 28.01 37.29 26.03 32.66 26.03 27.14 34.16 29.51 34.16 33.67 28.01"/><polygon class="cls-1" points="26.57 38.53 31.3 38.53 32.25 36.55 25.5 36.55 18.71 46.67 21.05 46.67 26.57 38.53"/><polygon class="cls-1" points="57.38 51.05 56.41 49.08 65.59 49.01 74.08 61.33 71.64 61.34 64.53 51 57.38 51.05"/><polygon class="cls-1" points="48.84 28.09 46.17 28.11 45.2 26.14 49.83 26.1 55.42 34.19 53.05 34.21 48.84 28.09"/><polygon class="cls-1" points="56.02 38.56 51.29 38.59 50.33 36.62 57.07 36.57 63.95 46.63 61.6 46.65 56.02 38.56"/></g></g></svg>