<svg xmlns="http://www.w3.org/2000/svg" viewBox="0 0 82.03 94.72"><defs><style>.cls-1{fill:#c42d32;}</style></defs><g id="Camada_2" data-name="Camada 2"><g id="Camada_1-2" data-name="Camada 1"><g id="Grupo_1370" data-name="Grupo 1370"><path id="Caminho_1515" data-name="Caminho 1515" class="cls-1" d="M41,0,0,23.68V71L41,94.72,82,71V23.68ZM79.7,69.7,41,92,2.33,69.69V25L41,2.69,79.7,25Z"/><path class="cls-1" d="M62.23,63h-6a1.64,1.64,0,0,1-1.72-1.54V59.65h-.84l-.21.13a.86.86,0,0,1-.38.1H28.84a.7.7,0,0,1-.46-.16l-.1-.07h-.83v1.76A1.64,1.64,0,0,1,25.73,63h-6A1.64,1.64,0,0,1,18,61.41V51a1.45,1.45,0,0,1,0-.35c.2-4.15,1.08-7,2.53-8.36L19,41.52a.78.78,0,0,1-.42-.53.81.81,0,0,1,.17-.67l1.77-2.09a.75.75,0,0,1,.58-.27h4.32c.72-1.56,1.34-2.82,1.86-3.73,1.39-2.44,9.19-2.56,13.74-2.43,4.48-.14,12.3,0,13.68,2.43.53.92,1.15,2.17,1.86,3.73h4a.75.75,0,0,1,.58.27l1.77,2.09a.81.81,0,0,1,.17.67.78.78,0,0,1-.42.53l-1.38.67c1.52,1.28,2.45,4.2,2.65,8.47A1.48,1.48,0,0,1,64,51v10.4A1.64,1.64,0,0,1,62.23,63ZM20.55,40.56l2.07,1a.77.77,0,0,1,.43.77.76.76,0,0,1-.56.67c-1.31.26-2.66,2.43-2.91,7.82a.54.54,0,0,1,0,.22V61.4s.07,0,.19,0h6a.26.26,0,0,0,.21-.07l0-2.45a.77.77,0,0,1,.76-.78h1.86a.76.76,0,0,1,.46.16l.1.07H52.88l.22-.12a.7.7,0,0,1,.38-.11h1.8a.78.78,0,0,1,.77.78V61.4s.07,0,.19,0h6a.26.26,0,0,0,.21-.07l0-10.32a.37.37,0,0,1,0-.18c-.24-5.39-1.6-7.56-2.78-7.79L59.27,43a.78.78,0,0,1-.16-1.45l2-1-.89-1.05H56.07a.77.77,0,0,1-.7-.45c-.77-1.7-1.46-3.1-2-4.06-.66-1.16-5.87-1.84-12.36-1.65-6.56-.21-11.76.49-12.42,1.65-.54,1-1.21,2.32-2,4.06a.76.76,0,0,1-.69.45H21.44Z"/><path class="cls-1" d="M41,44,26.79,42.82a.47.47,0,0,1-.43-.52.46.46,0,0,1,.51-.44L41,43.05,55.1,41.86a.46.46,0,0,1,.51.44.48.48,0,0,1-.44.52Z"/><path class="cls-1" d="M27.41,56.87a1.42,1.42,0,1,1,1.5-1.42A1.47,1.47,0,0,1,27.41,56.87Zm0-1.87a.46.46,0,1,0,0,.9.51.51,0,0,0,.55-.45A.52.52,0,0,0,27.41,55Z"/><path class="cls-1" d="M30,51.53h0l-4.72-.41c-.68-.19-3.65-1.13-4.12-2.4a1.09,1.09,0,0,1,.1-1,4.32,4.32,0,0,1,2-1.85.53.53,0,0,1,.25,0l6.73,1.41a.45.45,0,0,1,.24.14c.15.15,1.42,1.53.78,2.64a8.92,8.92,0,0,1-.88,1.32A.48.48,0,0,1,30,51.53Zm-6.55-4.69A3.8,3.8,0,0,0,22,48.25a.11.11,0,0,0,0,.13c.2.54,1.93,1.35,3.41,1.79l4.37.37a9.86,9.86,0,0,0,.63-1c.19-.34-.25-1-.55-1.39Z"/><path class="cls-1" d="M54.71,56.87a1.42,1.42,0,1,1,1.5-1.42A1.47,1.47,0,0,1,54.71,56.87Zm0-1.87a.46.46,0,1,0,0,.9.51.51,0,0,0,.55-.45A.52.52,0,0,0,54.71,55Z"/><path class="cls-1" d="M52,51.42a.48.48,0,0,1-.35-.16A10,10,0,0,1,50.73,50c-.65-1.09.63-2.42.78-2.57a.47.47,0,0,1,.24-.13L58.48,46a.39.39,0,0,1,.24,0,4.35,4.35,0,0,1,2,1.76,1.06,1.06,0,0,1,.11,1c-.44,1.2-3.2,2.06-4,2.3h-.09l-4.72.4Zm4.72-.88h0Zm-4.59-2.31c-.32.35-.72,1-.54,1.27a9.05,9.05,0,0,0,.62.93l4.43-.37c1.48-.42,3.17-1.18,3.36-1.69A3.83,3.83,0,0,0,58.52,47Z"/><path class="cls-1" d="M39.94,52.33A50.42,50.42,0,0,1,34.06,52a.48.48,0,0,1,.11-1,50.83,50.83,0,0,0,6.28.34,48.35,48.35,0,0,0,5.91-.42.48.48,0,0,1,.12,1,52.32,52.32,0,0,1-6,.43Z"/><path class="cls-1" d="M39.86,55.25a59.12,59.12,0,0,1-6.77-.4.49.49,0,0,1-.42-.54.49.49,0,0,1,.53-.42,59.2,59.2,0,0,0,7.28.39,57.8,57.8,0,0,0,6.84-.49.49.49,0,0,1,.54.42.48.48,0,0,1-.41.54,55.88,55.88,0,0,1-7,.49Z"/><path class="cls-1" d="M72.37,55.12H64.73v-1.2h6.54L73,34.78c-2.26,0-10.18.13-15.13,2.67l-.55-1.07c6.08-3.12,15.94-2.8,16.35-2.78l.64,0Z"/><path class="cls-1" d="M63.4,43.48l0-1.2c.9,0,2.05-.07,3.25-.12s2.59-.11,3.79-.14c.09-.86.18-1.79.27-2.72.11-1.13.21-2.25.33-3.25l1.19.14c-.11,1-.22,2.11-.33,3.23s-.21,2.25-.33,3.25l-.06.52H71c-1.32,0-2.85.1-4.29.16C65.46,43.41,64.31,43.46,63.4,43.48Z"/><rect class="cls-1" x="66.86" y="45.4" width="3.01" height="1.16"/><path class="cls-1" d="M17.3,55.12H9.66L7.72,33.62l.64,0c.41,0,10.27-.34,16.35,2.78l-.55,1.07C19.21,34.91,11.31,34.76,9,34.78l1.73,19.14H17.3Z"/><path class="cls-1" d="M18.63,43.48c-.91,0-2.06-.07-3.27-.12-1.44-.06-3-.13-4.29-.16h-.52l-.06-.52c-.12-1-.23-2.13-.33-3.26s-.22-2.24-.33-3.22L11,36.05c.12,1,.22,2.12.33,3.24.09.94.18,1.87.27,2.73,1.2,0,2.53.09,3.79.14s2.35.1,3.25.12Z"/><rect class="cls-1" x="12.17" y="45.4" width="3.01" height="1.16" transform="translate(27.34 91.96) rotate(-180)"/></g></g></g></svg>