<svg xmlns="http://www.w3.org/2000/svg" viewBox="0 0 82.03 94.72"><defs><style>.cls-1{fill:#14c3df;}</style></defs><g id="Camada_2" data-name="Camada 2"><g id="Camada_1-2" data-name="Camada 1"><g id="Grupo_1370" data-name="Grupo 1370"><path id="Caminho_1515" data-name="Caminho 1515" class="cls-1" d="M41,0,0,23.68V71L41,94.72,82,71V23.68ZM79.7,69.7,41,92,2.33,69.69V25L41,2.69,79.7,25Z"/></g><path class="cls-1" d="M41,25.24A22.12,22.12,0,1,0,63.13,47.36,22.14,22.14,0,0,0,41,25.24Zm0,42.23A20.12,20.12,0,1,1,61.13,47.36,20.13,20.13,0,0,1,41,67.47Z"/><path class="cls-1" d="M48.7,51.44a8.78,8.78,0,0,0,1-4.11,8.63,8.63,0,0,0-.88-3.8h10.2l-.37-1.28a18.39,18.39,0,0,0-35.33,0L23,43.53H33.17a8.56,8.56,0,0,0,.06,7.72l0-.06H23l.37,1.28A18.5,18.5,0,0,0,35.9,65l1.28.37V55.18c-.09,0-.18-.11-.27-.16a8.57,8.57,0,0,0,4.1,1,8.71,8.71,0,0,0,6.71-3.16,3.5,3.5,0,0,1-.24.3h8.85a16.56,16.56,0,0,1-9.48,9.49V53.83a8.79,8.79,0,0,1-2,1.35V65.39L46.12,65A18.52,18.52,0,0,0,58.68,52.47l.37-1.28H48.84C48.8,51.28,48.74,51.35,48.7,51.44Zm-23-9.91a16.38,16.38,0,0,1,30.63,0H47.5a8.66,8.66,0,0,0-13,0Zm9.48,12.3v8.84a16.52,16.52,0,0,1-9.48-9.48h8.85s-.08-.11-.13-.16a8.42,8.42,0,0,0,.95.94Zm5.83.22a6.73,6.73,0,1,1,6.72-6.72A6.74,6.74,0,0,1,41,54.05Z"/></g></g></svg>