<svg xmlns="http://www.w3.org/2000/svg" viewBox="0 0 82.03 94.72"><defs><style>.cls-1{fill:#c42d32;}</style></defs><g id="Camada_2" data-name="Camada 2"><g id="Camada_1-2" data-name="Camada 1"><g id="Grupo_1370" data-name="Grupo 1370"><path id="Caminho_1515" data-name="Caminho 1515" class="cls-1" d="M41,0,0,23.68V71L41,94.72,82,71V23.68ZM79.7,69.7,41,92,2.33,69.69V25L41,2.69,79.7,25Z"/><path class="cls-1" d="M24.31,37.4h.88a.73.73,0,0,0,.54-.24.71.71,0,0,0,.21-.51l0-.79h-.59l0-1.8h-1a.76.76,0,0,0-.74.75l0,1.86A.74.74,0,0,0,24.31,37.4Z"/><path class="cls-1" d="M31.42,58.09c.41-.09.79-.18,1.24-.3l.16-.1.08-.11a5.31,5.31,0,0,0,.43-.69l.43-1.24L32.13,56c-.3.09-.82.23-1.55.38l-.54.1c-.51.09-1.05.17-1.61.24-2.63.3-3.39.31-3.52.31s-1.08,0-3.44-.25c-.54-.05-1.07-.12-1.56-.19l-.55-.09a15.68,15.68,0,0,1-1.64-.38l-1.6-.31.36.95a2.72,2.72,0,0,0,.24.51l.17.23.13,0c.34.1,1.93.5,2.75.65l.57.1c.52.09,1.07.16,1.63.22,2.37.23,3.28.26,3.58.26h0c.09,0,.9,0,3.6-.34.58-.07,1.14-.15,1.68-.25Z"/><path class="cls-1" d="M36.21,33.74a6.75,6.75,0,0,0-.81-.52L34.86,33A16.75,16.75,0,0,0,33,32.2L32.43,32A24.46,24.46,0,0,0,25.35,31H24.19A24.16,24.16,0,0,0,17.34,32l-.52.17a15.5,15.5,0,0,0-1.91.76l-.53.26a6.75,6.75,0,0,0-.81.52c-1.57,1.22-1.91,4.1-2,4.95a53.54,53.54,0,0,0,.29,11.25,44.76,44.76,0,0,0,1.9,8.55,6.64,6.64,0,0,0,4.44,4.37,24.72,24.72,0,0,0,5.66.89h2a24.42,24.42,0,0,0,5.66-.89A6.69,6.69,0,0,0,36,58.37a45,45,0,0,0,1.86-8.43,53.74,53.74,0,0,0,.29-11.27S38,35.12,36.21,33.74ZM25,61.8h-.44A25.47,25.47,0,0,1,19.15,61a5.38,5.38,0,0,1-3.71-3.61,41.4,41.4,0,0,1-1.77-7.79,48.19,48.19,0,0,1-.32-10.16l0-.37s.19-2.91,1.52-3.91a4.32,4.32,0,0,1,.64-.38l.49-.24a16,16,0,0,1,1.75-.67l.52-.15a23.73,23.73,0,0,1,6.5-1H25a24,24,0,0,1,6.49,1l.52.16c.64.21,1.23.43,1.75.66l.5.24a6.25,6.25,0,0,1,.64.39c1,.78,1.42,2.85,1.5,3.71h0l0,.18a47.8,47.8,0,0,1-.28,10.54,39.34,39.34,0,0,1-1.83,7.9A5.31,5.31,0,0,1,30.63,61a26.5,26.5,0,0,1-4.9.78Z"/><path class="cls-1" d="M29.08,47.48h0l3.09,0a1.27,1.27,0,0,0,.9-.38,1.3,1.3,0,0,0,.37-.91l0-3a1.3,1.3,0,0,0-.49-1l.15-.3A2.4,2.4,0,0,0,33.18,40a2.41,2.41,0,0,0-4.44-.25l-.3.63a.63.63,0,0,0,0,.52.9.9,0,0,0,.53.47l.14,0a.72.72,0,0,0,.64-.4l.31-.62a1,1,0,0,1,1.29-.45,1,1,0,0,1,.49.55,1,1,0,0,1,0,.7l-.48.7-2.3,0a1.28,1.28,0,0,0-1.26,1.3l0,3A1.27,1.27,0,0,0,29.08,47.48Zm.12-4.17,2.78,0L32,46l-2.79,0Z"/><path class="cls-1" d="M17.72,47.46h3.11a1.28,1.28,0,0,0,.89-.37,1.3,1.3,0,0,0,.38-.91v-3a1.77,1.77,0,0,0-.39-1V41.06a2.42,2.42,0,0,0-2.41-2.4,2.39,2.39,0,0,0-1.69.7,2.25,2.25,0,0,0-.7,1.65l-.15,1.3a1.25,1.25,0,0,0-.3.83l0,3A1.3,1.3,0,0,0,17.72,47.46Zm2.55-5.63H18.33v-.77c0-.17,0-.37.38-.76l.4-.18.19,0a1,1,0,0,1,1,1ZM17.88,46V43.29h2.78V46Z"/><path class="cls-1" d="M58.34,36.72H57.8l0-1.66h-1a.73.73,0,0,0-.71.73v1.71a.73.73,0,0,0,.72.7h.82a.71.71,0,0,0,.52-.22.74.74,0,0,0,.2-.5h0Z"/><path class="cls-1" d="M52.64,57.4l.52.09c.48.08,1,.15,1.5.2,2.17.22,3,.24,3.31.24h0c.08,0,.83,0,3.32-.31.54-.06,1.06-.14,1.55-.24l.52-.1.44-.1.83-.21-1.39-1.44-.35.08-.31.07-.5.09c-.48.09-1,.16-1.49.22-2.42.28-3.12.29-3.24.29s-1,0-3.17-.23q-.75-.07-1.44-.18l-.5-.08-.91-.19-.21-.05-1.1,1.15L51,57C51.51,57.16,52.06,57.29,52.64,57.4Z"/><path class="cls-1" d="M67,53.24l0,.2L68.41,55l.17-.71c.35-1.55.63-3.08.81-4.54a49.92,49.92,0,0,0,.27-10.38,10.91,10.91,0,0,0-.36-2l-.19-.66-1.42,1.49,0,.21a9.29,9.29,0,0,1,.2,1.29v0a43.65,43.65,0,0,1-.26,9.7C67.52,50.64,67.28,51.93,67,53.24Z"/><path class="cls-1" d="M50.22,35.16c.19-.08.38-.15.6-.22l.47-.15a22.35,22.35,0,0,1,6-.89h.17a22.15,22.15,0,0,1,6,.89l.48.15a3.73,3.73,0,0,1,.4.14l.52.2,1.34-1.41-.81-.32c-.17-.07-.34-.14-.53-.2l-.49-.16a22.52,22.52,0,0,0-6.55-1H56.71a22.22,22.22,0,0,0-6.32,1l-.49.16c-.27.09-.51.19-.75.29l-.78.32,1.33,1.4Z"/><path class="cls-1" d="M65.18,58.19a4.43,4.43,0,0,1-2.53,1.71,24.69,24.69,0,0,1-4.52.73l-.71,0H57a22.94,22.94,0,0,1-4.94-.75A4.49,4.49,0,0,1,49.43,58l-.27-.4-1.37,1.44.18.26a5.61,5.61,0,0,0,3.23,2.36,22.8,22.8,0,0,0,5.23.82h1.85a22.85,22.85,0,0,0,5.24-.82,5.6,5.6,0,0,0,3.11-2.17l.2-.27-1.37-1.43Z"/><path class="cls-1" d="M46.78,39.71a9,9,0,0,1,.15-1.09l0-.2L45.53,36.9l-.17.69a11.39,11.39,0,0,0-.3,1.77,49.16,49.16,0,0,0,.27,10.38c.17,1.38.43,2.83.76,4.31l.16.71,1.48-1.55,0-.2c-.27-1.24-.49-2.45-.64-3.6h0a44.9,44.9,0,0,1-.3-9.33Z"/><polygon class="cls-1" points="45.3 60.25 57.22 47.73 69.14 60.25 70.61 58.74 58.67 46.21 70.61 33.68 69.14 32.18 57.22 44.69 45.3 32.18 43.83 33.68 55.77 46.21 43.83 58.74 45.3 60.25"/></g></g></g></svg>