<?xml version="1.0" encoding="utf-8"?>
<!-- Generator: Adobe Illustrator 27.3.1, SVG Export Plug-In . SVG Version: 6.00 Build 0)  -->
<svg version="1.1" id="Layer_1" xmlns="http://www.w3.org/2000/svg" xmlns:xlink="http://www.w3.org/1999/xlink" x="0px" y="0px"
	 viewBox="0 0 82 94.7" style="enable-background:new 0 0 82 94.7;" xml:space="preserve">
<style type="text/css">
	.st0{fill:#C42D32;}
</style>
<g id="Camada_1-2">
	<g id="Grupo_1370">
		<path id="Caminho_1515" class="st0" d="M41,0L0,23.7V71l41,23.7L82,71V23.7L41,0z M79.7,69.7L41,92L2.3,69.7V25L41,2.7L79.7,25
			V69.7z"/>
		<path class="st0" d="M32.5,43.1h17v17H38.9l-4.3-4.3h-4.3V45.2 M30.4,30.3v4.3h6.4v4.3h-6.4l-4.3,4.3v6.4h-4.3v-6.4h-4.3v17h4.3
			v-6.4h4.3v6.4h6.4l4.3,4.3h17v-8.5h4.3v6.4h6.4V41h-6.4v6.4h-4.3v-8.5H41v-4.3h6.4v-4.3H30.4z"/>
	</g>
</g>
</svg>
