<svg xmlns="http://www.w3.org/2000/svg" viewBox="0 0 82.03 94.72"><defs><style>.cls-1{fill:#14c3df;}</style></defs><g id="Camada_2" data-name="Camada 2"><g id="Camada_1-2" data-name="Camada 1"><g id="Grupo_1370" data-name="Grupo 1370"><path id="Caminho_1515" data-name="Caminho 1515" class="cls-1" d="M41,0,0,23.68V71L41,94.72,82,71V23.68ZM79.7,69.7,41,92,2.33,69.69V25L41,2.69,79.7,25Z"/></g><path class="cls-1" d="M54.49,60h-36A2.51,2.51,0,0,1,16,57.46V37.26a2.51,2.51,0,0,1,2.51-2.51h36A1.29,1.29,0,0,1,55.75,36V58.72A1.26,1.26,0,0,1,54.49,60Zm-36-23.43a.72.72,0,0,0-.72.72v20.2a.71.71,0,0,0,.72.71H54V36.54Z"/><path class="cls-1" d="M63.58,57.36H54v-20h9.63a2.5,2.5,0,0,1,2.5,2.5v15A2.5,2.5,0,0,1,63.58,57.36Zm-7.83-1.8h7.83a.7.7,0,0,0,.71-.7v-15a.71.71,0,0,0-.71-.71H55.75Z"/><path class="cls-1" d="M49,47.43l-3.59-2.07v1.72H31.06L33.6,43.9a1.48,1.48,0,0,1,1.16-.59h2.63a1.53,1.53,0,0,0,1.49,1.21,1.56,1.56,0,0,0,0-3.12,1.53,1.53,0,0,0-1.49,1.21H34.76a2.16,2.16,0,0,0-1.7.86l-2.89,3.61H26.82a2.08,2.08,0,1,0,0,.7h6.52l2.92,3.66a2.19,2.19,0,0,0,1.7.86H40.9v1h2.75V50.58H40.9v1H38A1.49,1.49,0,0,1,36.8,51l-2.58-3.23H45.39V49.5Z"/></g></g></svg>