<?xml version="1.0" encoding="utf-8"?>
<!-- Generator: Adobe Illustrator 27.3.1, SVG Export Plug-In . SVG Version: 6.00 Build 0)  -->
<svg version="1.1" id="Layer_1" xmlns="http://www.w3.org/2000/svg" xmlns:xlink="http://www.w3.org/1999/xlink" x="0px" y="0px"
	 viewBox="0 0 70.9 70.9" style="enable-background:new 0 0 70.9 70.9;" xml:space="preserve">
<g>
	<path d="M12.4,20.7c0.1-1.9,0.5-3.7,1.2-5.5c0.8-2,2.1-3.5,4-4.4c3-1.5,6.3-2.4,9.6-3C30.9,7,34.6,7,38.4,7.2
		c5.1,0.3,10.1,1.4,14.7,3.6c2.2,1,3.5,2.7,4.3,5c0.7,2,0.9,4.2,1,6.3c0.1,2.1,0.3,4.1,0.2,6.2c-0.1,3.6-0.3,7.3-0.7,10.9
		c-0.5,4.7-1.5,9.4-2.8,13.9c-0.6,2.2-1.5,4.2-3,5.9c-1.7,1.9-3.8,2.9-6.2,3.5c-4.4,1.1-8.9,1.4-13.4,1.2c-3.2-0.2-6.3-0.7-9.3-1.7
		c-3.1-1-5.2-3.2-6.5-6.1c-1.1-2.4-1.7-5-2.2-7.5c-0.6-2.9-1.1-5.8-1.5-8.7c-0.3-2.7-0.5-5.4-0.6-8.1C12.2,30,12.2,22.8,12.4,20.7z
		 M14.9,28.9c0,3.1,0.3,6.3,0.7,9.4c0.4,3,1,6,1.6,9c0.5,2.2,1,4.4,1.9,6.5c1.2,2.7,3,4.7,5.9,5.5c3.3,0.9,6.7,1.5,10.2,1.5
		c3,0,5.9-0.4,8.8-1.1c1.4-0.3,2.9-0.7,4.1-1.5c2.2-1.4,3.4-3.5,4.2-5.9c1.2-3.6,2-7.3,2.6-11.1c0.4-2.6,0.7-5.2,0.9-7.9
		c0.2-2.9,0.1-5.8,0.1-8.8c0-2-0.2-4.1-0.6-6.1c-0.5-2.6-1.7-4.5-4.3-5.6C46.2,11,41.3,10,36.3,9.8c-2.6-0.1-5.2,0.1-7.8,0.6
		c-3,0.5-5.9,1.3-8.6,2.5c-1.5,0.7-2.8,1.5-3.5,3c-0.4,1-0.8,2.1-0.9,3.1C15.1,21.8,14.9,26.8,14.9,28.9z"/>
	<path d="M25.6,35.4c-0.8,0-1.7,0-2.5,0c-1.4,0-2.3-0.8-2.3-2.2c0-1.7,0-3.5,0.1-5.2c0-0.4,0.3-0.8,0.5-1.3c0.1-0.2,0.2-0.5,0.3-0.7
		c0.1-1,0-2,0.3-2.9c0.5-1.8,2.3-2.8,4.2-2.6c1.8,0.2,3.3,1.7,3.5,3.5c0.1,0.7,0,1.4,0.1,2.1c0,0.3,0.2,0.5,0.2,0.8
		c0.1,0.4,0.4,0.8,0.4,1.3c0,1.7,0,3.5,0,5.2c0,1.2-0.8,2-2,2C27.4,35.5,26.5,35.4,25.6,35.4z M23.1,28.2c0,1.7,0,3.4,0,5.1
		c1.7,0,3.4,0,5.1,0c0-1.7,0-3.4,0-5.1C26.4,28.2,24.8,28.2,23.1,28.2z M23.8,26c1.3,0,2.5,0,3.8,0c0-0.7,0-1.3-0.1-2
		c-0.2-0.9-1-1.4-1.9-1.4c-0.9,0-1.7,0.7-1.8,1.6C23.7,24.8,23.8,25.4,23.8,26z"/>
	<path d="M40.6,30.7c0-0.9,0-1.8,0-2.7c0-1.1,0.9-1.8,2-1.9c1.3,0,2.6,0,3.9,0c0.4,0,0.6-0.1,0.7-0.5c0.3-0.7,0.7-1.3,0.5-2.1
		c-0.2-0.8-0.8-1.3-1.5-1.4c-0.8-0.1-1.5,0.2-1.9,0.9c-0.2,0.3-0.3,0.7-0.5,1c-0.3,0.7-0.9,0.9-1.5,0.6c-0.6-0.3-0.7-0.8-0.4-1.5
		c0.5-1.1,1.1-2.2,2.3-2.8c2.4-1.2,5.3,0.3,5.8,2.9c0.1,0.9-0.1,1.8-0.5,2.6c-0.1,0.3-0.2,0.5,0.1,0.7c0.4,0.4,0.6,0.9,0.6,1.4
		c0,1.7,0.1,3.5,0.1,5.2c0,1.1-0.8,2-1.9,2.1c-1.9,0.1-3.8,0.1-5.7,0.1c-1.1,0-1.8-0.9-1.9-2C40.6,32.5,40.6,31.6,40.6,30.7
		C40.6,30.7,40.6,30.7,40.6,30.7z M42.8,28.2c0,1.7,0,3.4,0,5.1c1.7,0,3.4,0,5.1,0c0-1.7,0-3.4,0-5.1C46.2,28.2,44.5,28.2,42.8,28.2
		z"/>
	<path d="M49.8,50.7c-0.2,0.9-0.5,1.5-1,2.1c-0.1,0.1-0.2,0.2-0.3,0.2c-2.1,0.6-4.2,0.9-6.3,1.1c-1.4,0.1-2.7,0.4-4.1,0.4
		c-1.5,0.1-2.9,0-4.4,0c-1.2-0.1-2.5-0.2-3.7-0.4c-2-0.3-3.9-0.7-5.9-1c-0.2,0-0.3-0.1-0.6-0.1c0.3,0.5,0.5,0.8,0.8,1.2
		c-0.1,0.1-0.3,0.3-0.4,0.5c-1.2-1-2.1-2-2.5-3.6C30.7,53.6,40.2,53.5,49.8,50.7z"/>
	<path d="M36.5,16.1c0,0.3,0,0.5,0,0.8c0,0.4-0.2,0.6-0.6,0.6c-0.5,0-1.1,0-1.6,0c-0.4,0-0.6-0.3-0.6-0.7c0-1,0-2.1,0-3.1
		c0-0.4,0.2-0.6,0.6-0.7c0,0,0,0,0.1,0c1.1-0.1,1.1-0.1,1.1,1c0,0.7,0,1.4,0,2.1C35.8,16.1,36.1,16.1,36.5,16.1z"/>
</g>
</svg>
