<?xml version="1.0" encoding="utf-8"?>
<!-- Generator: Adobe Illustrator 27.4.0, SVG Export Plug-In . SVG Version: 6.00 Build 0)  -->
<svg version="1.1" id="Layer_1" xmlns="http://www.w3.org/2000/svg" xmlns:xlink="http://www.w3.org/1999/xlink" x="0px" y="0px"
	 viewBox="0 0 82 94.7" style="enable-background:new 0 0 82 94.7;" xml:space="preserve">
<style type="text/css">
	.st0{fill:#C42D32;}
</style>
<g id="Camada_2">
	<g id="Camada_1-2">
		<g id="Grupo_1370">
			<path id="Caminho_1515" class="st0" d="M41,0L0,23.7V71l41,23.7L82,71V23.7L41,0z M79.7,69.7L41,92L2.3,69.7V25L41,2.7L79.7,25
				V69.7z"/>
			<g>
				<path class="st0" d="M69,56c-1,0-2,0-3,0c-2.8,0-5.7,0-8.5,0c-0.3,0-0.4,0.1-0.6,0.3c-1.1,1.5-2.5,2.5-4.3,2.9
					c-0.7,0.2-1.4,0.2-2.1,0.2c-1.8,0-3.7,0-5.5,0c-0.1,0-0.2,0-0.4,0c0-0.1,0-0.1,0-0.1c0.5-0.7,0.6-1.6,0.6-2.4c0-2.6,0-5.2,0-7.8
					c0-0.3,0.1-0.5,0.3-0.7c0.6-0.5,1-1.1,1.2-1.9c0.1,0.2,0.2,0.3,0.3,0.5c1.8,2.6,4.2,4.2,7.3,4.7c0.5,0.1,0.9,0.1,1.4,0.2
					c0.2,0,0.4,0,0.6,0c0.5-0.1,0.8-0.4,0.8-0.9c-0.1-0.6-0.3-0.8-0.9-0.8c-2.4-0.1-4.6-0.9-6.3-2.6c-1.9-1.8-2.9-4-2.9-6.6
					c0-0.9-0.7-1.1-1.2-0.9c-0.3,0.1-0.6,0.5-0.6,0.9c0,1.1,0,2.2,0,3.3c0,0.5,0,1,0,1.5c-0.1,1-1,1.8-2.1,1.8c-1,0-2-0.8-2-1.8
					c0-0.8,0-1.6,0-2.4c0-1.9,0-3.9,0-5.8c0-1.2,1-2.2,2.1-2.2c2,0,4.1,0,6.1,0c0.6,0,1.1,0.4,1.5,0.8c0.9,0.9,1.9,1.9,2.8,2.8
					c1.1,1.1,2.2,2.2,3.3,3.3c0.2,0.2,0.4,0.3,0.7,0.3c3.5,0,7,0,10.5,0c0.3,0,0.6,0,1,0C69,47.1,69,51.5,69,56z"/>
				<path class="st0" d="M36.9,71.7c-1,0.6-1.9,1.1-2.9,1.7c-3.4-5.9-6.8-11.9-10.3-17.8c1-0.6,1.9-1.1,2.9-1.7
					C30,59.8,33.4,65.7,36.9,71.7z"/>
				<path class="st0" d="M33.3,23.6c-1.3,5-2.6,9.9-4,14.8c-0.6-0.2-1.2-0.3-1.8-0.5c-0.4-0.1-0.8-0.2-1.2-0.3
					c-0.3-0.1-0.3-0.2-0.2-0.4c0.4-1.4,0.8-2.8,1.1-4.3c0.9-3.3,1.8-6.7,2.7-10c0.1-0.2,0.2-0.3,0.4-0.2c0.9,0.3,1.9,0.5,2.8,0.8
					C33.2,23.5,33.2,23.6,33.3,23.6z"/>
				<path class="st0" d="M37.7,49.4c1.2,0,2.3,0,3.5,0c0.9,0,1.7,0.3,2.1,1.2c0.6,1.3-0.2,2.7-1.6,2.9c-0.3,0-0.6,0.1-0.8,0.1
					c-2.1,0-4.2,0-6.3,0c-0.7,0-1.3-0.1-1.9-0.6c-1-1-0.7-2.8,0.6-3.3c0.3-0.1,0.7-0.2,1.1-0.2C35.5,49.3,36.6,49.4,37.7,49.4z"/>
				<path class="st0" d="M38.8,59.5c-0.8,0-1.7,0-2.5,0c-1.1,0-2-0.9-2.1-1.9c-0.1-1.2,0.7-2.1,1.8-2.2c0.3,0,0.5,0,0.8,0
					c1.5,0,3.1,0,4.6,0.1c1.2,0,2,1,2,2.1c0,1.1-1,2-2.1,2C40.5,59.5,39.7,59.5,38.8,59.5z"/>
				<path class="st0" d="M39.2,37.4c0,1.4,0,2.8,0,4.2c-0.2,0-0.3,0-0.5,0c-1.5,0-3,0-4.5,0c-1.2,0-2.1-0.9-2.1-2.1
					c0-1.1,0.9-2.1,2.1-2.1c1.5,0,2.9,0,4.4,0C38.7,37.4,38.9,37.4,39.2,37.4z"/>
				<path class="st0" d="M39.8,47.6c-1.9,0-3.7,0-5.5,0c-1.2,0-1.9-0.6-2.2-1.6c-0.3-1.1,0.6-2.4,1.8-2.4c1.7-0.1,3.5,0,5.2,0
					c0,0,0,0,0.1,0c0,0.7,0,1.4,0,2.1C39.2,46.4,39.4,47,39.8,47.6z"/>
				<path class="st0" d="M20.5,48.2c0.7,0.7,1.5,1.5,2.3,2.3c-0.1,0.1-0.1,0.2-0.2,0.2c-1.6,1.6-3.1,3.1-4.7,4.7
					c-0.2,0.2-0.3,0.2-0.4,0c-0.7-0.7-1.5-1.4-2.2-2.1C17.1,51.5,18.8,49.9,20.5,48.2z"/>
				<path class="st0" d="M23.4,44c0,0-0.1,0.1-0.2,0.1c-0.9,0.3-1.9,0.5-2.8,0.7c-0.2,0-0.3,0-0.4-0.2c-0.4-1.4-0.7-2.8-1.1-4.3
					c-0.2-0.7-0.4-1.4-0.6-2.1c-0.1-0.2,0-0.3,0.2-0.4c0.9-0.2,1.8-0.5,2.8-0.7c0.2,0,0.2,0,0.3,0.1c0.5,2,1,4,1.6,5.9
					C23.2,43.5,23.3,43.7,23.4,44z"/>
				<path class="st0" d="M43.1,26.3c-2.6,2.6-5.2,5.2-7.8,7.8c-0.3-0.3-0.6-0.6-1-0.9c0.2-0.1,0.3-0.2,0.5-0.4
					c1.8-1.8,3.7-3.7,5.5-5.6c0.6-0.6,1.2-1.2,1.8-1.7c0.1,0,0.2-0.1,0.2,0C42.6,25.8,42.8,26.1,43.1,26.3z"/>
				<path class="st0" d="M21.3,33.3c0-0.9,0-1.7,0-2.5c0-0.1,0-0.2,0-0.3c0-0.7,0-0.6,0.6-0.6c0.9,0,1.7,0,2.6,0
					c0.2,0,0.3,0,0.3,0.2c0,1,0,1.9,0,2.9c0,0.1-0.1,0.3-0.2,0.3C23.5,33.3,22.4,33.3,21.3,33.3z"/>
				<path class="st0" d="M16.9,30.5c-0.8-0.8-1.6-1.6-2.3-2.4c0.8-0.8,1.6-1.6,2.4-2.4c0.6,0.6,1.3,1.3,1.9,1.9
					c0.4,0.4,0.4,0.4,0,0.9C18.2,29.2,17.6,29.8,16.9,30.5z"/>
				<path class="st0" d="M35.1,63.2c0.3-0.3,0.6-0.6,0.9-0.9c1.9,1.9,3.9,3.9,5.9,5.9c-0.3,0.2-0.5,0.5-0.8,0.7
					c-0.1,0-0.2,0-0.3-0.1c-1.1-1-2.1-2.1-3.1-3.1C36.8,64.9,35.9,64.1,35.1,63.2z"/>
			</g>
		</g>
	</g>
</g>
</svg>
