<?xml version="1.0" encoding="utf-8"?>
<!-- Generator: Adobe Illustrator 27.4.0, SVG Export Plug-In . SVG Version: 6.00 Build 0)  -->
<svg version="1.1" id="Layer_1" xmlns="http://www.w3.org/2000/svg" xmlns:xlink="http://www.w3.org/1999/xlink" x="0px" y="0px"
	 viewBox="0 0 82 94.7" style="enable-background:new 0 0 82 94.7;" xml:space="preserve">
<style type="text/css">
	.st0{fill:#C42D32;}
</style>
<g id="Camada_2">
	<g id="Camada_1-2">
		<g id="Grupo_1370">
			<path id="Caminho_1515" class="st0" d="M41,0L0,23.7V71l41,23.7L82,71V23.7L41,0z M79.7,69.7L41,92L2.3,69.7V25L41,2.7L79.7,25
				V69.7z"/>
			<g>
				<path class="st0" d="M17.6,24c0.4-0.5,0.9-0.9,1.3-1.4c0.3-0.3,0.5-0.2,0.7,0.1c1.1,1.2,2.2,2.4,3.4,3.6
					c5.8,6.1,11.5,12.3,17.3,18.4c0.8,0.8,0.8,0.8,1.6,0c2.2-2.3,4.3-4.6,6.4-6.9c4-4.2,7.9-8.4,11.9-12.6c0.8-0.8,1.6-1.7,2.4-2.6
					c0.3-0.3,0.5-0.3,0.8,0c0.4,0.4,0.8,0.8,1.2,1.3c-7.3,7.8-14.6,15.5-21.9,23.3c0.8,0.8,1.5,1.6,2.3,2.4
					c6.4,6.8,12.8,13.6,19.2,20.4c0.3,0.3,0.4,0.5,0,0.8c-0.3,0.3-0.6,0.6-0.8,0.9c-0.3,0.4-0.6,0.4-0.9,0c-1.2-1.4-2.4-2.7-3.7-4
					C53,61.7,47.2,55.6,41.4,49.4c-0.1-0.1-0.2-0.2-0.4-0.4c-0.7,0.7-1.4,1.5-2,2.2c-1.9,2-3.9,4.1-5.8,6.1c-2,2.1-3.9,4.3-5.9,6.4
					c-2.6,2.7-5.1,5.4-7.7,8.1c-0.3,0.3-0.4,0.3-0.7,0c-0.3-0.3-0.7-0.7-1-1c-0.3-0.2-0.2-0.4,0-0.6c3.7-3.9,7.4-7.8,11.1-11.7
					c3.4-3.6,6.7-7.2,10.1-10.7c0.4-0.4,0.4-0.6,0-1c-6.8-7.2-13.6-14.5-20.4-21.7C18.3,24.7,17.9,24.4,17.6,24z"/>
				<path class="st0" d="M52.2,65.1c0.5,0.6,1,1.1,1.5,1.6c0.3,0.3,0.1,0.4-0.2,0.6c-1.2,0.9-2.6,1.4-4,1.7c-3.6,0.8-7.2,1.4-10.8,1
					c-2.6-0.3-5.1-0.6-7.5-1.6c-0.8-0.3-1.6-0.9-2.4-1.4c-0.3-0.2-0.4-0.4-0.1-0.7c0.5-0.5,0.9-1,1.3-1.4c1,0.5,2,1.1,3,1.4
					c5,1.5,10.1,1.7,15.2,0.4C49.5,66.4,51,66.1,52.2,65.1z"/>
				<path class="st0" d="M26.7,26.3c3.4-1.7,6.8-2.6,10.4-3c6.3-0.6,12.4,0.1,18.3,2.8c-0.5,0.6-1,1.1-1.5,1.7c-0.1,0.1-0.3,0-0.4,0
					c-2.8-1.3-5.8-1.9-8.9-2.2c-4.5-0.5-9-0.1-13.3,1.3c-0.9,0.3-1.8,0.7-2.7,1.1c-0.2,0.1-0.4,0-0.5-0.1
					C27.6,27.4,27.2,26.9,26.7,26.3z"/>
				<path class="st0" d="M59.9,33.4c0.8,8.8,0,17.5-2.1,26.1c-0.6-0.6-1.1-1.1-1.5-1.7c-0.2-0.2-0.2-0.6-0.1-0.9
					c0.8-2.9,1.2-5.9,1.5-8.9c0.2-2.8,0.4-5.6,0.5-8.5c0-1.3-0.1-2.6-0.2-3.9c0-0.4,0.1-0.7,0.3-0.9c0.5-0.5,1-1,1.5-1.5
					C59.7,33.3,59.8,33.3,59.9,33.4z"/>
				<path class="st0" d="M22.8,33.6c0.6,0.6,1.2,1.3,1.7,1.9c0.1,0.1,0.1,0.4,0.1,0.6c-0.2,3.5-0.1,6.9,0.2,10.4
					c0.2,3.2,0.8,6.4,1.5,9.6c0.2,0.7,0.1,1.1-0.4,1.6c-0.4,0.3-0.7,0.8-1.2,1.3c-2.2-8.4-2.7-16.7-2.1-25.2
					C22.7,33.7,22.7,33.7,22.8,33.6z"/>
				<path class="st0" d="M48.9,61.7c-5.2,1.2-10.4,0.9-15.6-0.2c0.4-0.6,0.7-0.9,1.4-0.9c1.7,0.2,3.5,0.4,5.2,0.5
					c2.5,0.2,4.9-0.2,7.3-0.5C48,60.5,48.4,60.8,48.9,61.7z"/>
				<path class="st0" d="M53.2,40.4c0,1.4,0,2.9,0,4.3c0,1-0.5,1.6-1.5,1.7c-1.4,0.1-2.9,0-4.4,0c0.7-0.8,1.3-1.8,2.5-1.6
					c0.4,0,0.9,0,1.3,0c0.4,0,0.5-0.1,0.5-0.5c0-0.5,0.1-1,0-1.5c-0.2-1.3,0.8-1.8,1.5-2.5C53.1,40.4,53.1,40.4,53.2,40.4z"/>
				<path class="st0" d="M34.6,46.6c-1.3-0.1-2.6-0.1-3.9-0.2c-0.6-0.1-1.1-0.6-1.1-1.2c-0.1-1.4,0-2.7,0-4.2
					c1.2,0.8,1.9,1.8,1.6,3.2c-0.1,0.5,0.1,0.7,0.6,0.6c0.1,0,0.2,0,0.2,0C33.3,44.6,34,45.4,34.6,46.6z"/>
				<path class="st0" d="M41.3,29.4c0,0.2,0,0.5,0,0.7c0,0.3,0.1,0.6,0.5,0.6c0.2,0,0.4,0.2,0.4,0.3c0,0.2-0.2,0.5-0.3,0.5
					c-0.5,0.1-1,0.1-1.5,0c-0.1,0-0.3-0.4-0.3-0.6c0-0.8,0-1.5,0-2.3c0-0.5,0.3-0.6,0.8-0.6c0.5,0,0.6,0.2,0.6,0.6
					C41.3,28.9,41.3,29.2,41.3,29.4C41.3,29.4,41.3,29.4,41.3,29.4z"/>
			</g>
		</g>
	</g>
</g>
</svg>
