<svg xmlns="http://www.w3.org/2000/svg" viewBox="0 0 82.03 94.72"><defs><style>.cls-1{fill:#14c3df;}</style></defs><g id="Camada_2" data-name="Camada 2"><g id="Camada_1-2" data-name="Camada 1"><g id="Grupo_1370" data-name="Grupo 1370"><path id="Caminho_1515" data-name="Caminho 1515" class="cls-1" d="M41,0,0,23.68V71L41,94.72,82,71V23.68ZM79.7,69.7,41,92,2.33,69.69V25L41,2.69,79.7,25Z"/></g><path class="cls-1" d="M54,46.17a1.21,1.21,0,0,0-1.24,1.19v4.89c0,6.09-5.27,11-11.73,11s-11.74-5-11.74-11V47.36a1.24,1.24,0,0,0-2.48,0v4.89c0,7,5.67,12.77,13,13.37V69h-4a1.19,1.19,0,1,0,0,2.38H46.2a1.19,1.19,0,1,0,0-2.38H42.26V65.62c7.3-.6,13-6.41,13-13.37V47.36A1.22,1.22,0,0,0,54,46.17Z"/><path class="cls-1" d="M41,61.6a9.63,9.63,0,0,0,9.88-9.35V32.67A9.64,9.64,0,0,0,41,23.32a9.64,9.64,0,0,0-9.89,9.35V52.25A9.64,9.64,0,0,0,41,61.6Zm-7.41-9.35V32.67a7.2,7.2,0,0,1,7.41-7,7.2,7.2,0,0,1,7.4,7V52.25a7.2,7.2,0,0,1-7.4,7A7.2,7.2,0,0,1,33.61,52.25Z"/></g></g></svg>