<svg xmlns="http://www.w3.org/2000/svg" viewBox="0 0 82.03 94.72"><defs><style>.cls-1{fill:#14c3df;}</style></defs><g id="Camada_2" data-name="Camada 2"><g id="Camada_1-2" data-name="Camada 1"><g id="Grupo_1370" data-name="Grupo 1370"><path id="Caminho_1515" data-name="Caminho 1515" class="cls-1" d="M41,0,0,23.68V71L41,94.72,82,71V23.68ZM79.7,69.7,41,92,2.33,69.69V25L41,2.69,79.7,25Z"/></g><path class="cls-1" d="M25,59.21H9.9a2.49,2.49,0,0,1-2.44-2.53V31.48A2.49,2.49,0,0,1,9.91,29H25a2.48,2.48,0,0,1,2.44,2.53V56.67A2.5,2.5,0,0,1,25,59.21ZM25,30h-15a1.5,1.5,0,0,0-1.45,1.53V56.67A1.49,1.49,0,0,0,9.9,58.2H25a1.51,1.51,0,0,0,1.44-1.54V31.48A1.48,1.48,0,0,0,25,30Z"/><path class="cls-1" d="M19.25,56.52a.38.38,0,0,1-.38.39H16a.39.39,0,0,1-.38-.4v-1a.39.39,0,0,1,.38-.4h2.89a.39.39,0,0,1,.38.4Z"/><path class="cls-1" d="M25.71,53.79H9.13V31.36H25.71Zm-15.58-1H24.71V32.36H10.13Z"/><path class="cls-1" d="M73,59.19H32.49a2.67,2.67,0,0,1-2.41-2.87V31.82A2.67,2.67,0,0,1,32.49,29H73a2.66,2.66,0,0,1,2.4,2.87v24.5A2.67,2.67,0,0,1,73,59.19ZM32.49,30c-.78,0-1.41.84-1.41,1.87v24.5c0,1,.63,1.87,1.41,1.87H73c.77,0,1.4-.84,1.4-1.87V31.82c0-1-.63-1.87-1.4-1.87Z"/><rect class="cls-1" x="32.5" y="50.25" width="6.75" height="1.31"/><path class="cls-1" d="M39.26,49.56H32.5V47.64h1a3.7,3.7,0,0,0,4.84,0h1Z"/><path class="cls-1" d="M35.89,47.79a3.46,3.46,0,1,1,3.32-3.46A3.41,3.41,0,0,1,35.89,47.79Zm0-5.91a2.46,2.46,0,1,0,2.32,2.45A2.4,2.4,0,0,0,35.89,41.88Z"/><path class="cls-1" d="M73.44,57.19H40.31V31.36H73.44Zm-32.13-1H72.44V32.36H41.31Z"/><path class="cls-1" d="M45.92,74.6l-.83-2.81a35.88,35.88,0,0,1-6.75.68c-14,0-18.74-9.56-18.79-9.67l-.93-1.92,1.69,1.31c9.28,7.22,20.47,3.37,22.7,2.49l-.7-2.38L52.58,65Zm-.13-4,.5,1.68,4.65-6.73-7.17-1.87.44,1.54-.39.18c-.12,0-11.67,5.21-22-1,2.65,3.32,9.49,9.14,23.53,6.28Z"/></g></g></svg>