<svg xmlns="http://www.w3.org/2000/svg" viewBox="0 0 82.03 94.72"><defs><style>.cls-1{fill:#763b3d;}</style></defs><g id="Camada_2" data-name="Camada 2"><g id="Camada_1-2" data-name="Camada 1"><g id="Grupo_1370" data-name="Grupo 1370"><path id="Caminho_1515" data-name="Caminho 1515" class="cls-1" d="M41,0,0,23.68V71L41,94.72,82,71V23.68ZM79.7,69.7,41,92,2.33,69.69V25L41,2.69,79.7,25Z"/><path class="cls-1" d="M32.46,40.72a11.89,11.89,0,1,0,17.11,0,1,1,0,0,1,0-1.4,1,1,0,0,1,.69-.28,1,1,0,0,1,.71.3,13.86,13.86,0,1,1-20,0,1,1,0,0,1,1.43,1.38Z"/><path class="cls-1" d="M55.66,33.26a1,1,0,0,0,0,1.4,20.47,20.47,0,1,1-29.27,0A1,1,0,1,0,25,33.27a22.46,22.46,0,1,0,32.09,0,1,1,0,0,0-1.4,0Z"/><path class="cls-1" d="M42.85,25.6,42,29.89l-.43,2.2,2.23.14,3.24.21-5.33,8.41.64-4.22.32-2.13-2.15-.13-3.91-.24,6.22-8.53m3.61-8.31L32.93,35.88l7.49.46-2,13.48L50.5,30.69,44,30.26l2.51-13Z"/></g></g></g></svg>