<?xml version="1.0" encoding="utf-8"?>
<!-- Generator: Adobe Illustrator 27.8.1, SVG Export Plug-In . SVG Version: 6.00 Build 0)  -->
<svg version="1.1" id="Layer_1" xmlns="http://www.w3.org/2000/svg" xmlns:xlink="http://www.w3.org/1999/xlink" x="0px" y="0px"
	 viewBox="0 0 82 94.7" style="enable-background:new 0 0 82 94.7;" xml:space="preserve">
<style type="text/css">
	.st0{fill:#14C3DF;}
</style>
<g id="Camada_2">
	<g id="Camada_1-2">
		<g id="Grupo_1370">
			<path id="Caminho_1515" class="st0" d="M41,0L0,23.7V71l41,23.7L82,71V23.7L41,0z M79.7,69.7L41,92L2.3,69.7V25L41,2.7L79.7,25
				V69.7z"/>
		</g>
	</g>
</g>
<g>
	<path class="st0" d="M50.6,39.7c-2.9-0.8-5.6-1.5-8.4-2.2c0-2.3,0-4.9,0-7.6c4.3,0.1,8.3,1.2,12.3,3.2
		C53.1,35.4,51.8,37.6,50.6,39.7z"/>
	<path class="st0" d="M39.9,29.9c0,2.7,0,5.2,0,7.6c-2.8,0.7-5.5,1.5-8.4,2.2c-1.2-2-2.5-4.2-3.9-6.6C31.5,31.1,35.5,30,39.9,29.9z"
		/>
	<path class="st0" d="M22.2,48.8c-0.8,2.8-1.5,5.5-2.3,8.3c-2.4,0-5,0-7.7,0c0.2-4.3,1.2-8.2,3.3-12.1
		C17.8,46.3,20.1,47.6,22.2,48.8z"/>
	<path class="st0" d="M62.2,57.1c-0.8-2.8-1.5-5.4-2.2-8.3c2-1.2,4.3-2.4,6.6-3.7c1.6,2,3.4,8.5,3.3,12
		C67.2,57.1,64.6,57.1,62.2,57.1z"/>
	<path class="st0" d="M25.6,34.2c1.4,2.3,2.7,4.5,3.9,6.6c-2.1,2-4.1,4-6.2,6.1c-2.1-1.2-4.3-2.5-6.7-3.8
		C19,39.4,21.9,36.5,25.6,34.2z"/>
	<path class="st0" d="M65.4,43.1c-2.3,1.3-4.6,2.6-6.7,3.8c-2.1-2.1-4.1-4-6.2-6.1c1.2-2,2.5-4.2,3.8-6.6
		C60.1,36.5,63.1,39.4,65.4,43.1z"/>
	<path class="st0" d="M50.9,38.8c-0.9,1.3-1.7,2.5-2.6,3.8c-2,2.9-4,5.8-5.9,8.6c-0.5,0.7-1,1-1.8,0.5c-0.8-0.4-0.8-1.2-0.1-2
		c2.2-2.4,4.3-4.7,6.5-7.1c1.2-1.3,2.5-2.7,3.7-4C50.7,38.7,50.8,38.7,50.9,38.8z"/>
	<g>
		<path class="st0" d="M40.3,55.4h1.4l1.8,6.3l1.2-6.3h1.8l-2.2,9.4h-1.7L41,58.3l-1.8,6.6h-1.7l-2.2-9.4h1.8l1.2,6.3L40.3,55.4z"/>
	</g>
</g>
</svg>
