<?xml version="1.0" encoding="utf-8"?>
<!-- Generator: Adobe Illustrator 27.3.1, SVG Export Plug-In . SVG Version: 6.00 Build 0)  -->
<svg version="1.1" id="Layer_1" xmlns="http://www.w3.org/2000/svg" xmlns:xlink="http://www.w3.org/1999/xlink" x="0px" y="0px"
	 viewBox="0 0 82 94.7" style="enable-background:new 0 0 82 94.7;" xml:space="preserve">
<style type="text/css">
	.st0{fill:#C42D32;}
</style>
<g id="Camada_1-2">
	<g id="Grupo_1370">
		<path id="Caminho_1515" class="st0" d="M41,0L0,23.7V71l41,23.7L82,71V23.7L41,0z M79.7,69.7L41,92L2.3,69.7V25L41,2.7L79.7,25
			V69.7z"/>
		<g>
			<g>
				<path class="st0" d="M39.7,47.2c0.1,2.6-0.9,5.1-2.7,7l-1.8-1.7c1.3-1.4,2.1-3.3,2-5.2c0-1.9-0.9-3.8-2.3-5.1l1.7-1.8
					C38.6,42.2,39.7,44.6,39.7,47.2"/>
				<path class="st0" d="M34.8,47.3c0,1.3-0.5,2.6-1.4,3.5l-1.8-1.7c0.4-0.5,0.7-1.1,0.7-1.7c0-0.6-0.3-1.3-0.8-1.7l1.7-1.8
					C34.2,44.8,34.8,46,34.8,47.3z"/>
			</g>
			<g>
				<path class="st0" d="M77.1,59.7h-4.8c-0.7,0-1.3-0.5-1.4-1.2v-1.4h-0.7l-0.2,0.1c-0.1,0-0.2,0.1-0.3,0.1H50.6
					c-0.1,0-0.3,0-0.4-0.1l-0.1-0.1h-0.7v1.4c0,0.7-0.6,1.3-1.3,1.3c0,0,0,0,0,0h-4.8c-0.7,0-1.3-0.5-1.4-1.2c0,0,0,0,0,0v-8.3
					c0-0.1,0-0.2,0-0.3c0.2-3.3,0.9-5.6,2-6.6l-1.2-0.6c-0.2-0.1-0.3-0.2-0.3-0.4c0-0.2,0-0.4,0.1-0.5l1.4-1.7
					c0.1-0.1,0.3-0.2,0.5-0.2h3.4c0.6-1.2,1.1-2.2,1.5-3c1.1-1.9,7.3-2,10.9-1.9c3.6-0.1,9.8,0,10.9,1.9c0.4,0.7,0.9,1.7,1.5,3h3.2
					c0.2,0,0.3,0.1,0.5,0.2l1.4,1.7c0.1,0.1,0.2,0.3,0.1,0.5c0,0.2-0.2,0.3-0.3,0.4l-1.1,0.5c1.2,1,1.9,3.3,2.1,6.7
					c0,0.1,0,0.2,0.1,0.3v8.3C78.5,59.2,77.9,59.8,77.1,59.7C77.1,59.7,77.1,59.7,77.1,59.7z M44,41.9l1.6,0.8
					c0.2,0.1,0.4,0.4,0.3,0.6c0,0.3-0.2,0.5-0.4,0.5c-1,0.2-2.1,1.9-2.3,6.2c0,0.1,0,0.1,0,0.2v8.2c0,0,0.1,0,0.2,0h4.8
					c0.1,0,0.1,0,0.2-0.1v-1.9c0-0.3,0.3-0.6,0.6-0.6c0,0,0,0,0,0h1.5c0.1,0,0.3,0,0.4,0.1l0.1,0.1h18.8l0.2-0.1
					c0.1-0.1,0.2-0.1,0.3-0.1h1.4c0.3,0,0.6,0.3,0.6,0.6v2c0,0,0.1,0,0.2,0h4.8c0.1,0,0.1,0,0.2-0.1v-8.2c0,0,0-0.1,0-0.1
					c-0.2-4.3-1.3-6-2.2-6.2l-0.3,0c-0.3-0.1-0.5-0.4-0.4-0.8c0-0.2,0.2-0.3,0.3-0.4l1.6-0.8l-0.7-0.8h-3.3c-0.2,0-0.5-0.1-0.6-0.4
					c-0.6-1.3-1.2-2.5-1.6-3.2c-0.5-0.9-4.7-1.5-9.8-1.3c-5.2-0.2-9.3,0.4-9.9,1.3c-0.4,0.8-1,1.8-1.6,3.2c-0.1,0.2-0.3,0.4-0.5,0.4
					h-3.5L44,41.9z"/>
				<path class="st0" d="M60.2,44.7L49,43.7c-0.2,0-0.4-0.2-0.3-0.4c0,0,0,0,0,0c0-0.2,0.2-0.4,0.4-0.4c0,0,0,0,0,0l11.2,0.9
					L71.4,43c0.2,0,0.4,0.1,0.4,0.3c0,0,0,0,0,0c0,0.2-0.1,0.4-0.3,0.4c0,0,0,0,0,0L60.2,44.7z"/>
				<path class="st0" d="M49.4,54.9c-0.6,0-1.1-0.6-1.1-1.2c0-0.6,0.6-1.1,1.2-1.1c0.6,0,1.1,0.5,1.1,1.1
					C50.6,54.4,50.1,54.9,49.4,54.9z M49.4,53.4c-0.2,0-0.4,0.1-0.4,0.3s0.1,0.4,0.3,0.4c0,0,0.1,0,0.2,0c0.2,0,0.4-0.1,0.4-0.4
					C49.9,53.5,49.7,53.4,49.4,53.4z"/>
				<path class="st0" d="M51.5,50.6L51.5,50.6l-3.7-0.3c-0.5-0.2-2.9-0.9-3.3-1.9c-0.1-0.3-0.1-0.6,0.1-0.8c0.4-0.6,0.9-1.2,1.6-1.5
					c0.1,0,0.1,0,0.2,0l5.3,1.1c0.1,0,0.1,0.1,0.2,0.1c0.1,0.1,1.1,1.2,0.6,2.1c-0.2,0.4-0.4,0.7-0.7,1
					C51.7,50.6,51.6,50.6,51.5,50.6z M46.3,46.9c-0.5,0.3-0.9,0.6-1.2,1.1c0,0,0,0.1,0,0.1c0.2,0.4,1.5,1.1,2.7,1.4l3.5,0.3
					c0.2-0.3,0.3-0.5,0.5-0.8c0.2-0.3-0.2-0.8-0.4-1.1L46.3,46.9z"/>
				<path class="st0" d="M71.1,54.9c-0.6,0-1.1-0.6-1.1-1.2c0-0.6,0.6-1.1,1.2-1.1c0.6,0,1.1,0.5,1.1,1.1
					C72.3,54.4,71.8,54.9,71.1,54.9z M71.1,53.4c-0.2,0-0.4,0.1-0.4,0.3c0,0.2,0.1,0.4,0.3,0.4c0,0,0.1,0,0.2,0
					c0.2,0,0.4-0.1,0.4-0.4C71.5,53.5,71.3,53.4,71.1,53.4z"/>
				<path class="st0" d="M69,50.6c-0.1,0-0.2,0-0.3-0.1c-0.3-0.3-0.5-0.6-0.7-1c-0.5-0.9,0.5-1.9,0.6-2c0.1-0.1,0.1-0.1,0.2-0.1
					l5.3-1c0.1,0,0.1,0,0.2,0c0.7,0.3,1.2,0.8,1.6,1.4c0.2,0.2,0.2,0.5,0.1,0.8c-0.3,1-2.5,1.6-3.2,1.8h-0.1L69,50.6L69,50.6z
					 M72.7,49.9L72.7,49.9z M69.1,48c-0.3,0.3-0.6,0.8-0.4,1c0.1,0.3,0.3,0.5,0.5,0.7l3.5-0.3c1.2-0.3,2.5-0.9,2.7-1.3
					c-0.3-0.5-0.7-0.8-1.2-1.1L69.1,48z"/>
				<path class="st0" d="M59.4,51.3c-1.6,0-3.1-0.1-4.7-0.3c-0.2,0-0.4-0.2-0.4-0.4c0-0.2,0.2-0.4,0.4-0.4l0,0
					c1.7,0.2,3.3,0.3,5,0.3c1.6,0,3.1-0.1,4.7-0.3c0.2,0,0.4,0.1,0.4,0.3c0,0.2-0.1,0.4-0.3,0.4c-1.6,0.2-3.2,0.3-4.8,0.3L59.4,51.3
					z"/>
				<path class="st0" d="M59.3,53.6c-1.8,0-3.6-0.1-5.4-0.3c-0.2,0-0.4-0.2-0.3-0.4c0-0.2,0.2-0.4,0.4-0.3c1.9,0.2,3.8,0.3,5.8,0.3
					c1.8,0,3.6-0.2,5.4-0.4c0.2,0,0.4,0.1,0.4,0.3c0,0.2-0.1,0.4-0.3,0.4c-1.8,0.2-3.7,0.4-5.6,0.4L59.3,53.6z"/>
			</g>
			<g>
				<path class="st0" d="M16.5,38.3h0.8c0.2,0,0.4-0.1,0.5-0.2c0.1-0.1,0.2-0.3,0.2-0.5v-0.7h-0.5v-1.6h-0.9c-0.4,0-0.7,0.3-0.7,0.7
					v1.7C15.9,38,16.2,38.3,16.5,38.3z"/>
				<path class="st0" d="M23,57.1c0.4-0.1,0.7-0.2,1.1-0.3l0.1-0.1l0.1-0.1c0.1-0.2,0.3-0.4,0.4-0.6l0.4-1.1l-1.5,0.3
					c-0.3,0.1-0.7,0.2-1.4,0.3l-0.5,0.1c-0.5,0.1-1,0.2-1.5,0.2c-2.4,0.3-3.1,0.3-3.2,0.3c-0.1,0-1,0-3.1-0.2c-0.5,0-1-0.1-1.4-0.2
					L12,55.6c-0.5-0.1-1-0.2-1.5-0.3L9.1,55l0.3,0.9c0.1,0.2,0.1,0.3,0.2,0.5l0.2,0.2h0.1c0.3,0.1,1.8,0.5,2.5,0.6l0.5,0.1
					c0.5,0.1,1,0.1,1.5,0.2c2.2,0.2,3,0.2,3.2,0.2l0,0c0.1,0,0.8,0,3.3-0.3c0.5-0.1,1-0.1,1.5-0.2L23,57.1z"/>
				<path class="st0" d="M27.3,35c-0.2-0.2-0.5-0.3-0.7-0.5l-0.5-0.2c-0.5-0.3-1.1-0.5-1.7-0.7l-0.5-0.2c-2.1-0.6-4.2-0.9-6.4-0.9
					h-1.1c-2.1,0-4.2,0.3-6.2,0.9l-0.5,0.2C9.1,33.8,8.6,34,8,34.3l-0.5,0.2C7.3,34.6,7,34.8,6.8,35C5.4,36.1,5,38.7,5,39.5
					c-0.3,3.4-0.2,6.8,0.3,10.2c0.3,2.6,0.9,5.2,1.7,7.8c0.6,1.9,2.1,3.4,4,4c1.7,0.5,3.4,0.7,5.1,0.8h1.8c1.7-0.1,3.5-0.3,5.1-0.8
					c1.9-0.6,3.5-2.1,4.1-4c0.8-2.5,1.4-5.1,1.7-7.6c0.4-3.4,0.5-6.8,0.3-10.2C29.1,39.5,28.9,36.2,27.3,35z M17.1,60.5h-0.4
					c-1.7-0.1-3.3-0.3-4.9-0.7C10.2,59.3,9,58,8.5,56.4c-0.8-2.3-1.3-4.7-1.6-7.1c-0.4-3.1-0.5-6.1-0.3-9.2v-0.3
					c0,0,0.2-2.6,1.4-3.5c0.2-0.1,0.4-0.2,0.6-0.3L9,35.7c0.5-0.2,1-0.4,1.6-0.6L11,35c1.9-0.6,3.9-0.9,5.9-0.9h0.2
					c2,0,4,0.3,5.9,0.9l0.5,0.1c0.6,0.2,1.1,0.4,1.6,0.6l0.5,0.2c0.2,0.1,0.4,0.2,0.6,0.4c0.9,0.7,1.3,2.6,1.4,3.4l0,0v0.2
					c0.3,3.2,0.2,6.4-0.3,9.6c-0.3,2.4-0.9,4.8-1.7,7.2c-0.5,1.6-1.7,2.7-3.3,3.2c-1.5,0.4-2.9,0.6-4.4,0.7L17.1,60.5z"/>
				<path class="st0" d="M20.8,47.5L20.8,47.5h2.8c0.3,0,0.6-0.1,0.8-0.3c0.2-0.2,0.3-0.5,0.3-0.8v-2.7c0-0.4-0.2-0.7-0.4-0.9
					l0.1-0.3c0.3-0.5,0.3-1.2,0.1-1.7c-0.4-1.1-1.7-1.7-2.8-1.3c-0.5,0.2-1,0.6-1.2,1.1L20.3,41c-0.1,0.1-0.1,0.3,0,0.5
					c0.1,0.2,0.3,0.4,0.5,0.4h0.1c0.2,0,0.5-0.1,0.6-0.4l0.3-0.6c0.2-0.4,0.7-0.6,1.2-0.4c0.2,0.1,0.4,0.3,0.4,0.5
					c0.1,0.2,0.1,0.4,0,0.6l-0.4,0.6h-2.1c-0.6,0-1.2,0.5-1.1,1.2c0,0,0,0,0,0v2.7C19.7,46.9,20.1,47.4,20.8,47.5
					C20.8,47.5,20.8,47.5,20.8,47.5z M21,43.7h2.5l0,2.4H21L21,43.7z"/>
				<path class="st0" d="M10.5,47.4h2.8c0.3,0,0.6-0.1,0.8-0.3c0.2-0.2,0.3-0.5,0.3-0.8v-2.7c0-0.3-0.1-0.6-0.4-0.9v-1
					c0-1.2-1-2.2-2.2-2.2c-0.6,0-1.1,0.2-1.5,0.6C10,40.5,9.8,41,9.8,41.6l-0.1,1.2c-0.2,0.2-0.3,0.5-0.3,0.8v2.7
					C9.4,46.9,9.9,47.4,10.5,47.4z M12.9,42.3h-1.8v-0.7c0-0.2,0-0.3,0.3-0.7l0.4-0.2H12c0.5,0,0.9,0.4,0.9,0.9L12.9,42.3z
					 M10.7,46.1v-2.5h2.5v2.5H10.7z"/>
			</g>
		</g>
	</g>
</g>
</svg>
