<svg xmlns="http://www.w3.org/2000/svg" viewBox="0 0 82.03 94.72"><defs><style>.cls-1{fill:#14c3df;}</style></defs><g id="Camada_2" data-name="Camada 2"><g id="Camada_1-2" data-name="Camada 1"><g id="Grupo_1370" data-name="Grupo 1370"><path id="Caminho_1515" data-name="Caminho 1515" class="cls-1" d="M41,0,0,23.68V71L41,94.72,82,71V23.68ZM79.7,69.7,41,92,2.33,69.69V25L41,2.69,79.7,25Z"/></g><path class="cls-1" d="M59.73,66.09H22.4V28.77H59.73ZM23.9,64.59H58.23V30.27H23.9Z"/><rect class="cls-1" x="58.88" y="34.6" width="3.17" height="1.5"/><rect class="cls-1" x="58.88" y="37.61" width="3.17" height="1.5"/><rect class="cls-1" x="58.88" y="40.61" width="3.17" height="1.5"/><rect class="cls-1" x="58.88" y="43.61" width="3.17" height="1.5"/><rect class="cls-1" x="58.88" y="46.61" width="3.17" height="1.5"/><rect class="cls-1" x="58.88" y="49.61" width="3.17" height="1.5"/><rect class="cls-1" x="58.88" y="52.61" width="3.17" height="1.5"/><rect class="cls-1" x="58.88" y="55.61" width="3.17" height="1.5"/><rect class="cls-1" x="58.88" y="58.61" width="3.17" height="1.5"/><rect class="cls-1" x="19.99" y="34.6" width="3.17" height="1.5"/><rect class="cls-1" x="19.99" y="37.61" width="3.17" height="1.5"/><rect class="cls-1" x="19.99" y="40.61" width="3.17" height="1.5"/><rect class="cls-1" x="19.99" y="43.61" width="3.17" height="1.5"/><rect class="cls-1" x="19.99" y="46.61" width="3.17" height="1.5"/><rect class="cls-1" x="19.99" y="49.61" width="3.17" height="1.5"/><rect class="cls-1" x="19.99" y="52.61" width="3.17" height="1.5"/><rect class="cls-1" x="19.99" y="55.61" width="3.17" height="1.5"/><rect class="cls-1" x="19.99" y="58.61" width="3.17" height="1.5"/><rect class="cls-1" x="28.31" y="26.18" width="1.5" height="3.17"/><rect class="cls-1" x="31.31" y="26.18" width="1.5" height="3.17"/><rect class="cls-1" x="34.31" y="26.18" width="1.5" height="3.17"/><rect class="cls-1" x="37.31" y="26.18" width="1.5" height="3.17"/><rect class="cls-1" x="40.31" y="26.18" width="1.5" height="3.17"/><rect class="cls-1" x="43.32" y="26.18" width="1.5" height="3.17"/><rect class="cls-1" x="46.32" y="26.18" width="1.5" height="3.17"/><rect class="cls-1" x="49.32" y="26.18" width="1.5" height="3.17"/><rect class="cls-1" x="52.32" y="26.18" width="1.5" height="3.17"/><rect class="cls-1" x="28.31" y="65.37" width="1.5" height="3.17"/><rect class="cls-1" x="31.31" y="65.37" width="1.5" height="3.17"/><rect class="cls-1" x="34.31" y="65.37" width="1.5" height="3.17"/><rect class="cls-1" x="37.31" y="65.37" width="1.5" height="3.17"/><rect class="cls-1" x="40.31" y="65.37" width="1.5" height="3.17"/><rect class="cls-1" x="43.32" y="65.37" width="1.5" height="3.17"/><rect class="cls-1" x="46.32" y="65.37" width="1.5" height="3.17"/><rect class="cls-1" x="49.32" y="65.37" width="1.5" height="3.17"/><rect class="cls-1" x="52.32" y="65.37" width="1.5" height="3.17"/><path class="cls-1" d="M41.26,39.76l-4.53,6.73,5.08,7.33H39.07l-3.74-5.55-3.62,5.55H29.13l4.92-7.42-4.57-6.64H32.2l3.23,4.92,3.27-4.92h2.56m2.82-1.5H37.89l-.44.67-2,3-2-3L33,38.26H26.63l1.61,2.35,4,5.8L27.88,53l-1.55,2.33h6.19l.44-.68L35.35,51l2.48,3.68.45.66h6.4L43,53l-4.5-6.49,4-5.89,1.58-2.33Z"/><path class="cls-1" d="M51.07,40.21V48.8h1.79l-.27,1.81H51.07v3.21H48.92V50.61H42.6V49L49,40.21h2.11M44.92,48.8h4V43.15l-4,5.65m7.65-10.09H48.2l-.45.62-6.37,8.81-.28.39v3.58h6.32v3.21h5.15V52.11h1.31l.19-1.27L54.34,49l.27-1.72h-2V38.71Z"/></g></g></svg>