<svg xmlns="http://www.w3.org/2000/svg" viewBox="0 0 82.03 94.72"><defs><style>.cls-1{fill:#c42d32;}</style></defs><g id="Camada_2" data-name="Camada 2"><g id="Camada_1-2" data-name="Camada 1"><g id="Grupo_1370" data-name="Grupo 1370"><path id="Caminho_1515" data-name="Caminho 1515" class="cls-1" d="M41,0,0,23.68V71L41,94.72,82,71V23.68ZM79.7,69.7,41,92,2.33,69.69V25L41,2.69,79.7,25Z"/><path class="cls-1" d="M69.92,58.53H65.57a1.18,1.18,0,0,1-1.25-1.1V56.17h-.61l-.16.09a.5.5,0,0,1-.27.07H45.66a.55.55,0,0,1-.33-.11l-.07,0h-.61v1.26a1.18,1.18,0,0,1-1.25,1.1H39.05a1.18,1.18,0,0,1-1.25-1.1V50a1.07,1.07,0,0,1,0-.25c.14-3,.78-5,1.83-6l-1.16-.55a.59.59,0,0,1-.3-.39.53.53,0,0,1,.12-.47l1.28-1.5a.55.55,0,0,1,.43-.2h3.14q.78-1.68,1.35-2.67c1-1.75,6.68-1.83,10-1.74,3.26-.1,8.94,0,10,1.74.38.66.83,1.56,1.35,2.67h2.89a.53.53,0,0,1,.42.2l1.28,1.5a.54.54,0,0,1,.13.47.58.58,0,0,1-.31.39l-1,.48c1.11.91,1.78,3,1.93,6.06a1.15,1.15,0,0,1,0,.26v7.45A1.18,1.18,0,0,1,69.92,58.53Zm-30.29-16,1.51.72a.55.55,0,0,1,.31.55.57.57,0,0,1-.4.49c-.95.18-1.94,1.74-2.12,5.6a.5.5,0,0,1,0,.16v7.41s.05,0,.14,0H43.4c.09,0,.14,0,.15-.05V55.61a.55.55,0,0,1,.55-.55h1.35a.55.55,0,0,1,.33.11l.08,0H63.13l.16-.09a.5.5,0,0,1,.27-.07h1.31a.56.56,0,0,1,.56.55v1.81s.06,0,.14,0h4.35a.23.23,0,0,0,.16-.05l0-7.39a.61.61,0,0,1,0-.13c-.18-3.86-1.16-5.42-2-5.59l-.24,0a.55.55,0,0,1-.43-.48.58.58,0,0,1,.31-.56l1.43-.68-.65-.76h-3a.56.56,0,0,1-.5-.32c-.56-1.22-1.06-2.22-1.45-2.9-.48-.84-4.27-1.33-9-1.19-4.76-.15-8.54.35-9,1.18S44.6,40.17,44,41.41a.57.57,0,0,1-.51.32H40.28Z"/><path class="cls-1" d="M54.51,45l-10.34-.85a.36.36,0,0,1-.32-.38.34.34,0,0,1,.38-.31l10.28.85,10.23-.85a.32.32,0,0,1,.37.31.35.35,0,0,1-.31.38Z"/><path class="cls-1" d="M44.62,54.17a1,1,0,1,1,1.09-1A1.05,1.05,0,0,1,44.62,54.17Zm0-1.33a.36.36,0,0,0-.39.32.36.36,0,0,0,.39.32.37.37,0,0,0,.4-.32A.37.37,0,0,0,44.62,52.84Z"/><path class="cls-1" d="M46.51,50.35h0L43,50.05c-.49-.14-2.65-.8-3-1.72a.78.78,0,0,1,.07-.71,3.21,3.21,0,0,1,1.47-1.32.37.37,0,0,1,.18,0l4.89,1a.4.4,0,0,1,.18.1c.11.11,1,1.1.57,1.9a7.07,7.07,0,0,1-.64.94A.34.34,0,0,1,46.51,50.35ZM41.74,47a2.79,2.79,0,0,0-1,1,.08.08,0,0,0,0,.09c.15.39,1.4,1,2.47,1.28l3.18.27a6.85,6.85,0,0,0,.45-.7c.15-.24-.17-.73-.39-1Z"/><path class="cls-1" d="M64.46,54.17a1,1,0,1,1,1.09-1A1.05,1.05,0,0,1,64.46,54.17Zm0-1.33a.37.37,0,0,0-.4.32.41.41,0,1,0,.4-.32Z"/><path class="cls-1" d="M62.46,50.27a.33.33,0,0,1-.25-.11,6.89,6.89,0,0,1-.64-.9c-.48-.78.46-1.74.56-1.84a.31.31,0,0,1,.18-.09l4.89-1a.32.32,0,0,1,.17,0,3.08,3.08,0,0,1,1.47,1.26.74.74,0,0,1,.08.69c-.32.86-2.33,1.48-2.93,1.64l-.07,0-3.43.28Zm3.43-.63h0ZM62.55,48c-.23.25-.52.7-.39.91a7.6,7.6,0,0,0,.45.66l3.22-.26c1.08-.31,2.31-.85,2.44-1.21a2.66,2.66,0,0,0-1-1Z"/><path class="cls-1" d="M53.73,50.92a36.13,36.13,0,0,1-4.28-.25.33.33,0,0,1-.3-.38.33.33,0,0,1,.38-.3,38.93,38.93,0,0,0,4.56.24,36,36,0,0,0,4.3-.31.36.36,0,0,1,.39.3.35.35,0,0,1-.3.39,37.46,37.46,0,0,1-4.38.31Z"/><path class="cls-1" d="M53.67,53a42.58,42.58,0,0,1-4.92-.28.35.35,0,1,1,.08-.69,44.53,44.53,0,0,0,5.29.28,43.37,43.37,0,0,0,5-.35.35.35,0,1,1,.09.69,45,45,0,0,1-5.06.35Z"/><path class="cls-1" d="M27,62.15l-13.68,0a2.46,2.46,0,0,1-2.45-2.47L10.93,35a2.48,2.48,0,0,1,2.48-2.46l13.67,0a2.52,2.52,0,0,1,1.74.73,2.49,2.49,0,0,1,.72,1.75l-.08,24.59A2.48,2.48,0,0,1,27,62.15ZM13.4,34A1.06,1.06,0,0,0,12.34,35l-.07,24.59a1.06,1.06,0,0,0,1.05,1.06L27,60.74a1.07,1.07,0,0,0,1.05-1.06l.08-24.6a1,1,0,0,0-.31-.74,1.07,1.07,0,0,0-.75-.32Z"/><path class="cls-1" d="M21.47,59.63H18.84a1.06,1.06,0,0,1-1-1.06v-.88a1,1,0,0,1,1.05-1h2.63a1.05,1.05,0,0,1,.75.32,1,1,0,0,1,.3.75v.86a1,1,0,0,1-.29.73A1,1,0,0,1,21.47,59.63Zm-2.26-1.41h1.9v-.16H19.21Zm1.91-.52h0Z"/><path class="cls-1" d="M27.25,56,13.17,56l.07-21.17,14.07,0ZM14.46,54.67,26,54.7,26,36.17l-11.5,0Z"/><path class="cls-1" d="M31.42,50.5l-1-1a3,3,0,0,0,0-4.29l1-1A4.45,4.45,0,0,1,31.42,50.5Z"/><path class="cls-1" d="M32.94,53.54l-1-1a7.35,7.35,0,0,0,0-10.38l1-1A8.76,8.76,0,0,1,32.94,53.54Z"/></g></g></g></svg>