<svg xmlns="http://www.w3.org/2000/svg" viewBox="0 0 82.03 94.72"><defs><style>.cls-1{fill:#14c3df;}</style></defs><g id="Camada_2" data-name="Camada 2"><g id="Camada_1-2" data-name="Camada 1"><g id="Grupo_1370" data-name="Grupo 1370"><path id="Caminho_1515" data-name="Caminho 1515" class="cls-1" d="M41,0,0,23.68V71L41,94.72,82,71V23.68ZM79.7,69.7,41,92,2.33,69.69V25L41,2.69,79.7,25Z"/></g><path class="cls-1" d="M59.35,53.33l-4.57-9.15a4.49,4.49,0,0,0-3.34-2.44l-9.12-1.4a4.79,4.79,0,0,0-4.72,2.08L35,37.27a7,7,0,0,0,1-3.64,7.08,7.08,0,1,0-7.77,7l7.93,15.87a.65.65,0,0,1-.58.93H28.51A3.16,3.16,0,0,0,25.69,62l.64,1.28a1,1,0,0,0,.64.54l12.12,3.79a11.93,11.93,0,0,0,3.61.55,12.06,12.06,0,0,0,5.41-1.28l8.07-4a7.1,7.1,0,0,0,3.17-9.52ZM38,58.26a2.76,2.76,0,0,0,.12-2.71l-10.49-21a1.79,1.79,0,0,1-.16-.86,1.57,1.57,0,0,1,3-.71l6.13,12.26a1,1,0,0,0,1,.56,1,1,0,0,0,1-.55l.7-1.39A2.66,2.66,0,0,1,42,42.46l9.12,1.4a2.36,2.36,0,0,1,1.75,1.28l4.57,9.15A4.83,4.83,0,0,1,58,56.5a4.92,4.92,0,0,1-2.74,4.43l-8.06,4a10.18,10.18,0,0,1-7.43.6L28,61.8l-.38-.75a1,1,0,0,1-.1-.46,1,1,0,0,1,1-1h7.15A2.77,2.77,0,0,0,38,58.26Zm-14-24.63a4.94,4.94,0,0,1,9.87,0,4.56,4.56,0,0,1-.15,1.16L32.41,32A3.69,3.69,0,0,0,29.08,30a3.76,3.76,0,0,0-3.72,3.88,3.82,3.82,0,0,0,.39,1.66l1.31,2.61A4.9,4.9,0,0,1,24.07,33.63Z"/></g></g></svg>