<svg xmlns="http://www.w3.org/2000/svg" viewBox="0 0 82.03 94.72"><defs><style>.cls-1{fill:#14c3df;}</style></defs><g id="Camada_2" data-name="Camada 2"><g id="Camada_1-2" data-name="Camada 1"><g id="Grupo_1370" data-name="Grupo 1370"><path id="Caminho_1515" data-name="Caminho 1515" class="cls-1" d="M41,0,0,23.68V71L41,94.72,82,71V23.68ZM79.7,69.7,41,92,2.33,69.69V25L41,2.69,79.7,25Z"/></g><path class="cls-1" d="M58.07,33.86h-7a1.32,1.32,0,0,0,0,2.63h7a.31.31,0,0,1,.31.31V57.92a.31.31,0,0,1-.31.31H24a.31.31,0,0,1-.31-.31V36.8a.31.31,0,0,1,.31-.31h7a1.32,1.32,0,0,0,0-2.63H24A3,3,0,0,0,21,36.8V57.92A3,3,0,0,0,24,60.85H37.27v3.87H33.71a1.32,1.32,0,1,0,0,2.63H48.32a1.32,1.32,0,1,0,0-2.63H44.76V60.85H58.07A3,3,0,0,0,61,57.92V36.8A3,3,0,0,0,58.07,33.86ZM39.89,64.72V60.85h2.25v3.87Z"/><path class="cls-1" d="M33.71,44.61h1.12v6.81a1.31,1.31,0,1,0,2.62,0V44.61h1.13a1.31,1.31,0,1,0,0-2.62H33.71a1.31,1.31,0,1,0,0,2.62Z"/><path class="cls-1" d="M47.07,42.92l-1.18,3.93-1.18-3.93a1.31,1.31,0,0,0-.64-.78,1.32,1.32,0,0,0-1.88,1.54l2.44,8.12a1.31,1.31,0,0,0,1.26.93h0a1.3,1.3,0,0,0,1.25-.93l2.44-8.12a1.34,1.34,0,0,0-.1-1,1.31,1.31,0,0,0-2.41.24Z"/><path class="cls-1" d="M41,38.92a1.72,1.72,0,1,0-1.72-1.71A1.72,1.72,0,0,0,41,38.92Z"/><path class="cls-1" d="M43.26,35.2a1.3,1.3,0,0,0,1,.48v0h0a1.32,1.32,0,0,0,.84-.31,1.32,1.32,0,0,0,.17-1.84,6.51,6.51,0,0,0-.83-.83,5.5,5.5,0,0,0-4-1.18,5.43,5.43,0,0,0-3.67,2,1.31,1.31,0,1,0,2,1.66,2.68,2.68,0,0,1,.5-.51A2.84,2.84,0,0,1,43.26,35.2Z"/><path class="cls-1" d="M35.53,32.76a6.81,6.81,0,0,1,11,0,1.31,1.31,0,0,0,1,.47h0a1.31,1.31,0,0,0,1-2.15,9.43,9.43,0,0,0-15,0,1.33,1.33,0,0,0-.3,1,1.35,1.35,0,0,0,.47.89A1.32,1.32,0,0,0,35.53,32.76Z"/></g></g></svg>