<?xml version="1.0" encoding="utf-8"?>
<!-- Generator: Adobe Illustrator 27.8.1, SVG Export Plug-In . SVG Version: 6.00 Build 0)  -->
<svg version="1.1" id="Layer_1" xmlns="http://www.w3.org/2000/svg" xmlns:xlink="http://www.w3.org/1999/xlink" x="0px" y="0px"
	 viewBox="0 0 82 94.7" style="enable-background:new 0 0 82 94.7;" xml:space="preserve">
<style type="text/css">
	.st0{fill:#14C3DF;}
</style>
<g id="Camada_2">
	<g id="Camada_1-2">
		<g id="Grupo_1370">
			<path id="Caminho_1515" class="st0" d="M41,0L0,23.7V71l41,23.7L82,71V23.7L41,0z M79.7,69.7L41,92L2.3,69.7V25L41,2.7L79.7,25
				V69.7z"/>
		</g>
	</g>
	<g>
		<path class="st0" d="M41,71.7c-5.9,0-11.8,0-17.6,0c-3.8,0-6.6-2.8-6.7-6.6c0-4,0-8,0-12c0-7.8,0-15.5,0-23.3
			c0-3.1,1.8-5.6,4.7-6.4c0.7-0.2,1.4-0.3,2.1-0.3c11.7,0,23.4,0,35.1,0c3.9,0,6.8,2.9,6.8,6.8c0,11.7,0,23.3,0,35
			c0,4-2.8,6.8-6.8,6.8C52.7,71.7,46.8,71.7,41,71.7z M41,24c-5.9,0-11.8,0-17.7,0c-3.1,0-5.7,2.5-5.7,5.6c0,11.9,0,23.7,0,35.6
			c0,3.1,2.5,5.6,5.6,5.6c11.9,0,23.7,0,35.6,0c0.5,0,1-0.1,1.4-0.2c2.5-0.7,4.2-2.9,4.2-5.5c0-11.7,0-23.5,0-35.2
			c0-3.4-2.4-5.8-5.8-5.8C52.7,24,46.9,24,41,24z"/>
		<path class="st0" d="M41.1,27.2c11.1,0,20.2,9.2,20.2,20.3C61.2,58.6,52.1,67.6,41,67.6c-11.1,0-20.2-9.2-20.2-20.3
			C20.9,36.1,30,27.1,41.1,27.2z M41,28.1c-10.7,0-19.3,8.7-19.3,19.4c0,10.5,8.7,19.2,19.2,19.2c10.8,0,19.4-8.6,19.4-19.4
			C60.3,36.7,51.6,28.1,41,28.1z"/>
		<path class="st0" d="M22.3,30.3c-1.2,0-2.2-1-2.2-2.2c0-1.2,1-2.2,2.3-2.2c1.2,0,2.2,1,2.2,2.2C24.5,29.3,23.5,30.3,22.3,30.3z
			 M23.6,28.1c0-0.7-0.6-1.3-1.3-1.3c-0.7,0-1.3,0.6-1.3,1.3c0,0.7,0.6,1.3,1.3,1.3C23,29.3,23.6,28.8,23.6,28.1z"/>
		<path class="st0" d="M22.3,64.5c1.2,0,2.2,1,2.2,2.3c0,1.2-1.1,2.2-2.3,2.2c-1.2,0-2.2-1.1-2.2-2.3C20.1,65.4,21.1,64.5,22.3,64.5
			z M23.6,66.7c0-0.7-0.6-1.3-1.3-1.3c-0.7,0-1.3,0.6-1.3,1.3c0,0.7,0.6,1.3,1.3,1.4C23,68,23.6,67.4,23.6,66.7z"/>
		<path class="st0" d="M59.8,64.5c1.2,0,2.2,1,2.2,2.3c0,1.2-1,2.2-2.3,2.2c-1.2,0-2.2-1-2.2-2.3C57.5,65.4,58.6,64.4,59.8,64.5z
			 M61.1,66.7c0-0.7-0.6-1.3-1.3-1.3c-0.7,0-1.3,0.6-1.3,1.3c0,0.7,0.6,1.3,1.3,1.3C60.4,68,61.1,67.4,61.1,66.7z"/>
		<path class="st0" d="M59.8,30.3c-1.2,0-2.2-1-2.2-2.2c0-1.2,1-2.3,2.2-2.3c1.2,0,2.2,1,2.2,2.2C62,29.3,61,30.3,59.8,30.3z
			 M61.1,28.1c0-0.7-0.6-1.3-1.3-1.3c-0.7,0-1.3,0.6-1.3,1.3c0,0.7,0.6,1.3,1.3,1.3C60.4,29.4,61.1,28.8,61.1,28.1z"/>
		<path class="st0" d="M56.6,47.5c0,8.6-7,15.5-15.6,15.5c-8.6,0-15.5-7-15.5-15.7c0-8.4,7.1-15.4,15.6-15.4
			C49.7,31.8,56.6,38.8,56.6,47.5z M41,62c8.2-0.1,14.7-6.7,14.6-14.8c-0.1-8.1-6.7-14.6-14.8-14.5c-8,0.1-14.6,6.8-14.5,14.8
			C26.5,55.5,33.1,62.1,41,62z"/>
		<path class="st0" d="M41.1,42.7c2.6,0,4.7,2.1,4.6,4.7c0,2.6-2.1,4.7-4.7,4.7c-2.6,0-4.7-2.2-4.6-4.7
			C36.4,44.7,38.5,42.7,41.1,42.7z M41,51.1c2.1,0,3.7-1.7,3.7-3.8c0-2-1.7-3.8-3.8-3.7c-2.1,0-3.8,1.7-3.7,3.8
			C37.3,49.5,39,51.1,41,51.1z"/>
	</g>
</g>
</svg>
