<?xml version="1.0" encoding="utf-8"?>
<!-- Generator: Adobe Illustrator 27.4.0, SVG Export Plug-In . SVG Version: 6.00 Build 0)  -->
<svg version="1.1" id="Layer_1" xmlns="http://www.w3.org/2000/svg" xmlns:xlink="http://www.w3.org/1999/xlink" x="0px" y="0px"
	 viewBox="0 0 82 94.7" style="enable-background:new 0 0 82 94.7;" xml:space="preserve">
<style type="text/css">
	.st0{fill:#C42D32;}
</style>
<g id="Camada_2">
	<g id="Camada_1-2">
		<g id="Grupo_1370">
			<path id="Caminho_1515" class="st0" d="M41,0L0,23.7V71l41,23.7L82,71V23.7L41,0z M79.7,69.7L41,92L2.3,69.7V25L41,2.7L79.7,25
				V69.7z"/>
			<g>
				<path class="st0" d="M50.5,72.4c-0.1,0-0.1-0.1-0.2-0.1c-0.7-0.3-1-1-0.9-1.6c0.2-0.7,0.7-1.2,1.5-1.2c2.1,0,4.1-0.6,5.9-1.9
					c2.8-2,4.2-4.8,4.4-8.2c0-1.2,1.1-2,2.1-1.5c0.6,0.3,0.9,0.8,0.9,1.5c-0.2,4.7-2.2,8.3-6,10.9c-1.7,1.2-3.7,1.8-5.8,2.1
					c-0.1,0-0.2,0.1-0.3,0.1C51.4,72.4,51,72.4,50.5,72.4z"/>
				<path class="st0" d="M13.9,34.4c0.2-1,0.4-2.1,0.7-3.1c1.7-5.3,6.8-9,12.3-9c1,0,1.7,0.6,1.7,1.5c0,0.9-0.7,1.4-1.6,1.5
					c-5.6,0.1-10,4.6-10.1,10.1c0,0.9-0.4,1.5-1.2,1.6c-0.7,0.2-1.3-0.2-1.7-1c0,0,0,0-0.1-0.1C13.9,35.4,13.9,34.9,13.9,34.4z"/>
				<path class="st0" d="M33.9,39.8c0.2-0.2,0.3-0.4,0.5-0.6c3.5-3.5,6.9-7,10.4-10.4c1.6-1.6,4-1.9,5.8-0.6
					c0.3,0.2,0.6,0.5,0.9,0.8c0.3,0.3,0.4,0.6,0.7,1c1.9-0.9,3.7-0.8,5.2,0.7c1.5,1.5,1.7,3.3,0.9,5.2c2.2,1.1,3.4,3.6,2.1,6.3
					c0.1,0.1,0.3,0.2,0.4,0.2c2.4,1.4,3,4.7,1,6.7c-1.5,1.6-3.1,3.1-4.6,4.7c-1.9,1.9-3.8,3.9-5.9,5.7c-4.3,3.8-9.4,6.1-15.1,6.9
					c-0.9,0.1-1.5-0.1-2.1-0.7c-3.5-3.5-7.1-7.1-10.6-10.6c-0.6-0.6-0.8-1.1-0.7-1.9c0.5-4.1,1-8.3,1.5-12.4
					c0.2-1.6,0.4-3.1,0.6-4.7c0.3-2.3,2.3-3.9,4.7-3.7c2.2,0.1,4,2,4,4.2c0,1,0,2,0,3C33.8,39.7,33.8,39.7,33.9,39.8z M30.8,40.1
					c0-1.1,0-2.2,0-3.2c0-0.9-0.6-1.5-1.4-1.5c-0.8,0-1.5,0.6-1.5,1.4c-0.2,1.8-0.4,3.6-0.6,5.4c-0.4,3.6-0.9,7.1-1.3,10.7
					c0,0.2,0.1,0.4,0.2,0.6c3.3,3.3,6.5,6.5,9.8,9.8c0.1,0.1,0.3,0.2,0.5,0.2c5-0.9,9.5-2.9,13.2-6.3c3.4-3.2,6.7-6.6,10-9.8
					c0.1-0.1,0.1-0.1,0.2-0.2c0.6-0.8,0.2-2-0.8-2.3c-0.6-0.1-1.1,0.1-1.5,0.5c-2,2-4.1,4.1-6.1,6.1c-0.1,0.1-0.3,0.3-0.5,0.4
					c-0.5,0.4-1,0.4-1.6,0.1c-0.6-0.3-0.9-0.8-0.7-1.4c0.1-0.4,0.3-0.8,0.6-1.1c2.7-2.8,5.5-5.5,8.3-8.3c0.3-0.3,0.5-0.6,0.6-1
					c0.1-0.6-0.2-1.2-0.8-1.5c-0.6-0.3-1.2-0.2-1.8,0.4c-2.6,2.6-5.2,5.2-7.8,7.8c-0.3,0.3-0.5,0.5-0.8,0.8
					c-0.9,0.7-2.2,0.3-2.4-0.8c-0.1-0.6,0.1-1.1,0.5-1.5c3.4-3.4,6.7-6.7,10.1-10.1c0.1-0.1,0.3-0.3,0.4-0.4
					c0.4-0.5,0.5-1.1,0.2-1.6c-0.3-0.5-0.9-0.9-1.5-0.7c-0.4,0.1-0.8,0.3-1,0.6c-3.4,3.4-6.8,6.7-10.1,10.1
					c-0.1,0.1-0.2,0.2-0.4,0.3c-0.5,0.4-1.2,0.5-1.7,0.2c-0.5-0.3-0.8-0.9-0.7-1.5c0.1-0.4,0.3-0.7,0.6-1c2.7-2.7,5.3-5.4,8-8
					c0.1-0.1,0.3-0.2,0.4-0.4c0.4-0.5,0.5-1,0.2-1.6c-0.3-0.6-0.8-0.9-1.4-0.7c-0.4,0.1-0.8,0.3-1.1,0.6c-4.5,4.4-8.9,8.9-13.3,13.3
					c-0.5,0.5-1,0.7-1.7,0.5c-0.6-0.2-0.9-0.8-0.9-1.6C30.8,42.1,30.8,41.1,30.8,40.1z"/>
				<path class="st0" d="M26.9,28.1c1,0,1.7,0.6,1.7,1.4c0,0.9-0.6,1.5-1.6,1.5c-2.4,0.1-4.2,1.9-4.3,4.3c0,0.6-0.3,1.1-0.9,1.4
					c-0.6,0.3-1.1,0.2-1.5-0.2c-0.3-0.3-0.5-0.8-0.5-1.2c-0.1-3.5,2.7-6.7,6.1-7.2C26.3,28.2,26.6,28.2,26.9,28.1z"/>
				<path class="st0" d="M51.1,66.5c-1,0-1.6-0.6-1.7-1.4c0-0.9,0.6-1.5,1.6-1.5c2.4-0.1,4.2-1.9,4.3-4.3c0-0.9,0.6-1.6,1.5-1.6
					c0.9,0,1.5,0.7,1.5,1.6C58.2,63.2,54.9,66.5,51.1,66.5z"/>
			</g>
		</g>
	</g>
</g>
</svg>
