<?xml version="1.0" encoding="utf-8"?>
<!-- Generator: Adobe Illustrator 27.9.0, SVG Export Plug-In . SVG Version: 6.00 Build 0)  -->
<svg version="1.1" id="Layer_1" xmlns="http://www.w3.org/2000/svg" xmlns:xlink="http://www.w3.org/1999/xlink" x="0px" y="0px"
	 viewBox="0 0 82 94.7" style="enable-background:new 0 0 82 94.7;" xml:space="preserve">
<style type="text/css">
	.st0{fill:#003366;}
</style>
<g id="Camada_1-2">
	<g id="Grupo_1370">
		<path id="Caminho_1515" class="st0" d="M41,0L0,23.7V71l41,23.7L82,71V23.7L41,0z M79.7,69.7L41,92L2.3,69.7V25L41,2.7L79.7,25
			V69.7z"/>
	</g>
</g>
<g>
	<path class="st0" d="M18.7,41.5c0-0.9,0-1.7,0-2.4c0.1-2.9,0.8-5.7,1.9-8.4c0.6-1.5,1.4-2.9,2.3-4.2c0.5-0.7,1.6-1,2.3-0.5
		c0.8,0.5,1.1,1.6,0.5,2.4c-0.8,1.1-1.4,2.3-2,3.6c-0.9,2.1-1.5,4.2-1.7,6.5c-0.2,2.1,0,4.2,0.4,6.2c0.3,1.5,0.8,2.9,1.5,4.2
		c0.5,1,1.1,2,1.7,3c0.4,0.6,0.3,1.4-0.1,1.9c-0.4,0.5-1.1,0.8-1.8,0.6c-0.4-0.1-0.7-0.3-0.9-0.6c-0.9-1.3-1.6-2.6-2.3-4
		c-0.8-1.7-1.3-3.5-1.7-5.4C18.9,43.3,18.8,42.4,18.7,41.5z"/>
	<path class="st0" d="M63.3,40.5c0,0.9-0.1,2.2-0.3,3.5c-0.3,1.6-0.7,3.1-1.3,4.5c-0.6,1.5-1.3,3-2.2,4.3c-0.2,0.3-0.3,0.5-0.5,0.8
		c-0.5,0.8-1.5,0.9-2.3,0.4c-0.7-0.5-0.9-1.5-0.5-2.3c0.5-0.8,1-1.6,1.5-2.5c0.7-1.4,1.3-2.8,1.6-4.3c0.5-1.9,0.7-3.8,0.6-5.7
		c-0.1-2.4-0.6-4.7-1.5-6.9c-0.6-1.4-1.3-2.7-2.1-4c-0.4-0.6-0.5-1.2-0.1-1.9c0.6-1.1,2.1-1.1,2.8-0.1c1.4,2.1,2.5,4.3,3.3,6.7
		C63,35.4,63.3,37.7,63.3,40.5z"/>
	<path class="st0" d="M43.8,71c-1.9,0-3.8,0-5.7,0c0-0.7,0.1-1.4,0.1-2.1c0.1-1.5,0.2-3,0.3-4.6c0.1-2,0.3-4,0.4-5.9
		c0.1-1.9,0.3-3.7,0.4-5.6c0.1-2,0.3-3.9,0.4-5.9c0-0.1,0-0.3,0-0.4c0.1-0.6,0.5-1,1.1-1c0.6,0,1.1,0.4,1.1,1
		c0.1,1.1,0.2,2.2,0.2,3.4c0.1,2,0.3,3.9,0.4,5.9c0.1,1.8,0.2,3.5,0.4,5.3c0.1,1.4,0.2,2.7,0.3,4.1c0.1,1.5,0.2,3.1,0.3,4.6
		C43.8,70.3,43.8,70.7,43.8,71z"/>
	<path class="st0" d="M24.9,39.8c0-2.1,0.5-4.1,1.4-6.1c0.4-0.9,0.9-1.8,1.5-2.6c0.4-0.5,0.9-0.7,1.6-0.6c0.6,0.1,1.1,0.5,1.3,1.1
		c0.2,0.6,0.1,1.1-0.3,1.6c-0.9,1.4-1.6,2.9-1.9,4.6c-0.5,2.5-0.2,4.9,0.9,7.2c0.3,0.7,0.7,1.3,1.1,2c0.5,0.7,0.4,1.6-0.2,2.2
		c-0.6,0.6-1.9,0.7-2.6-0.3c-1-1.5-1.7-3-2.2-4.7C25,42.6,24.8,41.2,24.9,39.8z"/>
	<path class="st0" d="M57.2,39.8c0,2.6-0.6,5-1.8,7.3c-0.3,0.6-0.7,1.3-1.1,1.8c-0.4,0.6-1.3,0.8-2,0.5c-0.7-0.3-1.1-1-1-1.7
		c0-0.3,0.2-0.6,0.3-0.8c1.5-2.2,2.2-4.6,2.1-7.3c-0.1-2.4-0.8-4.5-2.1-6.4c-0.5-0.8-0.5-1.5,0-2.2c0.6-0.8,2-0.8,2.5,0
		c0.5,0.8,1,1.6,1.4,2.4c0.7,1.4,1.1,2.8,1.3,4.3C57.1,38.4,57.1,39.1,57.2,39.8z"/>
	<path class="st0" d="M30.9,40.2c0-1.8,0.5-3.3,1.5-4.7c0.5-0.7,1.5-0.9,2.2-0.5c0.8,0.4,1.1,1.4,0.7,2.2c-0.2,0.3-0.4,0.6-0.5,1
		c-0.4,0.9-0.5,1.8-0.4,2.8c0.1,0.7,0.4,1.3,0.8,1.8c0.5,0.7,0.3,1.8-0.4,2.3c-0.8,0.6-1.8,0.4-2.4-0.4C31.5,43.2,31,41.7,30.9,40.2
		z"/>
	<path class="st0" d="M51.1,40c0,1.7-0.5,3.2-1.5,4.6c-0.4,0.6-1.3,0.8-2,0.6c-0.7-0.3-1.2-1-1-1.8c0.1-0.3,0.2-0.6,0.3-0.8
		c0.3-0.5,0.6-1,0.7-1.6c0.3-1.3,0-2.5-0.8-3.6c-0.5-0.8-0.3-1.8,0.5-2.3c0.7-0.5,1.8-0.3,2.3,0.4C50.6,36.8,51.1,38.3,51.1,40z"/>
	<path class="st0" d="M41,43.2c-1.8,0-3.2-1.4-3.2-3.2c0-1.8,1.4-3.2,3.2-3.2c1.8,0,3.2,1.4,3.2,3.2C44.2,41.8,42.8,43.2,41,43.2z"
		/>
</g>
</svg>
