<?xml version="1.0" encoding="utf-8"?>
<!-- Generator: Adobe Illustrator 27.2.0, SVG Export Plug-In . SVG Version: 6.00 Build 0)  -->
<svg version="1.1" id="Layer_1" xmlns="http://www.w3.org/2000/svg" xmlns:xlink="http://www.w3.org/1999/xlink" x="0px" y="0px"
	 viewBox="0 0 16 16" style="enable-background:new 0 0 16 16;" xml:space="preserve">
<style type="text/css">
	.st0{fill:none;stroke:#000000;stroke-width:0.5;stroke-miterlimit:10;}
	.st1{fill-rule:evenodd;clip-rule:evenodd;}
</style>
<g>
	<path class="st0" d="M12.5,15.5h-9c-1.6,0-3-1.4-3-3v-9c0-1.6,1.4-3,3-3h9c1.6,0,3,1.4,3,3v9C15.5,14.1,14.1,15.5,12.5,15.5z"/>
	<path class="st1" d="M13.2,8c0-2.9-2.4-5.2-5.2-5.2S2.8,5.1,2.8,8c0,2.6,1.9,4.8,4.4,5.2V9.5H5.8V8h1.3V6.9c0-1.3,0.8-2,2-2
		c0.6,0,1.2,0.1,1.2,0.1v1.3H9.7C9,6.2,8.8,6.6,8.8,7v1h1.5L10,9.5H8.8v3.7C11.3,12.8,13.2,10.7,13.2,8z"/>
</g>
</svg>
