<?xml version="1.0" encoding="utf-8"?>
<!-- Generator: Adobe Illustrator 27.2.0, SVG Export Plug-In . SVG Version: 6.00 Build 0)  -->
<svg version="1.1" id="Layer_1" xmlns="http://www.w3.org/2000/svg" xmlns:xlink="http://www.w3.org/1999/xlink" x="0px" y="0px"
	 viewBox="0 0 16 16" style="enable-background:new 0 0 16 16;" xml:space="preserve">
<style type="text/css">
	.st0{fill:none;stroke:#000000;stroke-width:0.5;stroke-miterlimit:10;}
</style>
<g>
	<path d="M13.9,5.5c0-1.1-0.8-1.9-1.7-1.9c-1.3-0.1-2.6-0.1-4-0.1H7.8c-1.3,0-2.7,0-4,0.1c-1,0-1.7,0.9-1.7,1.9C2,6.3,2,7.2,2,8
		c0,0.8,0,1.7,0.1,2.5c0,1.1,0.8,1.9,1.7,1.9c1.4,0.1,2.8,0.1,4.2,0.1c1.4,0,2.8,0,4.2-0.1c1,0,1.7-0.9,1.7-1.9C14,9.7,14,8.8,14,8
		C14,7.2,14,6.3,13.9,5.5z M6.9,10.3V5.7L10.3,8L6.9,10.3z"/>
	<path class="st0" d="M12.5,15.5h-9c-1.6,0-3-1.4-3-3v-9c0-1.6,1.4-3,3-3h9c1.6,0,3,1.4,3,3v9C15.5,14.1,14.1,15.5,12.5,15.5z"/>
</g>
</svg>
